<svg width="61" height="67" viewBox="0 0 61 67" fill="none" xmlns="http://www.w3.org/2000/svg">
<path d="M54.1617 64.9677C57.2443 64.9677 59.4919 62.0786 58.7598 59.0926C56.1176 48.334 46.3723 40.3447 34.7569 40.3447C23.1414 40.3447 13.3904 48.334 10.7539 59.0983C10.0219 62.0843 12.2695 64.9677 15.352 64.9677H54.1617Z" stroke="white" stroke-width="2.5" stroke-miterlimit="10"/>
<path d="M34.7568 34.9653C42.151 34.9653 48.1451 28.9928 48.1451 21.6252C48.1451 14.2577 42.151 8.28516 34.7568 8.28516C27.3626 8.28516 21.3684 14.2577 21.3684 21.6252C21.3684 28.9928 27.3626 34.9653 34.7568 34.9653Z" stroke="white" stroke-width="2.5" stroke-miterlimit="10"/>
<path d="M6.41298 57.2181C8.62055 48.226 14.3053 41.1656 24.2851 37.8833C13.0414 38.2594 2.71846 45.411 0.139152 55.9132C-0.59289 58.8992 1.65471 61.7826 4.73729 61.7826H7.24225C6.37295 60.5061 6.00693 58.8764 6.41298 57.2181Z" fill="#FFC444"/>
<path d="M17.3592 18.9701C17.3592 10.7188 24.0734 4.02881 32.3546 4.02881C35.2828 4.02881 38.0165 4.86648 40.3213 6.31389C37.7763 2.51302 33.4298 0 28.4942 0C20.6591 0 14.3052 6.33098 14.3052 14.1436C14.3052 17.8988 15.7807 21.3122 18.177 23.848C17.6508 22.3151 17.3592 20.6797 17.3592 18.9701Z" fill="#FFC444"/>
</svg>
