<svg width="51" height="54" viewBox="0 0 51 54" fill="none" xmlns="http://www.w3.org/2000/svg">
<path d="M43.6645 37.8633L34.9814 46.5198C33.8689 47.6283 32.3702 48.247 30.7995 48.247H7.92264C4.65231 48.247 2 45.5918 2 42.3179V7.9291C2 4.65521 4.65231 2 7.92264 2H39.4826C42.7529 2 45.4052 4.65521 45.4052 7.9291V33.6614C45.4103 35.2391 44.782 36.7497 43.6645 37.8633Z" stroke="white" stroke-width="2.5" stroke-miterlimit="10"/>
<path d="M48.9281 43.3953L40.245 52.0518C39.1326 53.1603 37.6339 53.779 36.0631 53.779H13.1914C9.92111 53.779 7.2688 51.1238 7.2688 47.8499V13.4611C7.2688 10.1872 9.92111 7.53198 13.1914 7.53198H44.7514C48.0217 7.53198 50.674 10.1872 50.674 13.4611V39.1934C50.674 40.7711 50.0457 42.2817 48.9281 43.3953Z" fill="#FFC444"/>
<path d="M15.7258 21.5492C15.7258 20.9058 16.2474 20.3843 16.8908 20.3843H41.7427C42.386 20.3843 42.9076 20.9058 42.9076 21.5492C42.9076 22.1926 42.386 22.7141 41.7427 22.7141H16.8908C16.2474 22.7141 15.7258 22.1926 15.7258 21.5492Z" fill="white"/>
<path d="M15.7258 26.986C15.7258 26.3426 16.2474 25.821 16.8908 25.821H41.7427C42.386 25.821 42.9076 26.3426 42.9076 26.986C42.9076 27.6294 42.386 28.1509 41.7427 28.1509H16.8908C16.2474 28.1509 15.7258 27.6294 15.7258 26.986Z" fill="white"/>
<path d="M15.7258 32.4221C15.7258 31.7788 16.2474 31.2572 16.8908 31.2572H41.7427C42.386 31.2572 42.9076 31.7788 42.9076 32.4221C42.9076 33.0655 42.386 33.5871 41.7427 33.5871H16.8908C16.2474 33.5871 15.7258 33.0655 15.7258 32.4221Z" fill="white"/>
<path d="M15.7258 37.8584C15.7258 37.215 16.2474 36.6935 16.8908 36.6935H29.3167C29.9601 36.6935 30.4816 37.215 30.4816 37.8584C30.4816 38.5018 29.9601 39.0233 29.3167 39.0233H16.8908C16.2474 39.0233 15.7258 38.5018 15.7258 37.8584Z" fill="white"/>
</svg>
