<svg width="666" height="1531" viewBox="0 0 666 1531" fill="none" xmlns="http://www.w3.org/2000/svg">
<path d="M71.7263 1512.09L76.7914 1511.08C68.3495 1513.1 57.5439 1514.45 44.7122 1515.47C43.3615 1515.47 42.3485 1516.14 40.9978 1516.48C53.1541 1515.47 63.6221 1514.12 71.7263 1512.09Z" fill="#FF9A3E" fill-opacity="0.26"/>
<path d="M-1.21189 1517.16C-1.21189 1517.16 -3.23795 1517.83 -4.25098 1518.17C12.2952 1518.17 27.1529 1517.49 39.6469 1516.48C40.9976 1516.48 42.0106 1515.8 43.3613 1515.47C30.5297 1516.48 15.3342 1517.16 -1.54957 1517.16H-1.21189Z" fill="#FF9A3E" fill-opacity="0.26"/>
<path d="M174.379 1462.79C174.379 1462.79 172.016 1464.14 171.003 1464.82C189.913 1463.13 205.783 1461.1 218.615 1458.06C219.966 1457.39 221.316 1456.71 222.329 1456.04C209.498 1459.08 193.289 1461.1 174.379 1462.79Z" fill="#FF9A3E" fill-opacity="0.26"/>
<path d="M172.692 1463.13C153.444 1464.48 131.158 1465.49 105.832 1465.49C104.819 1466.17 103.806 1466.84 103.131 1467.52C128.119 1467.52 150.068 1466.84 169.315 1465.15C170.328 1464.48 171.679 1463.8 172.692 1463.13Z" fill="#FF9A3E" fill-opacity="0.26"/>
<path d="M242.591 1450.3L246.981 1447.93C240.902 1450.97 233.136 1453.67 223.343 1456.04C221.993 1456.71 220.642 1457.39 219.629 1458.06C229.084 1455.7 236.85 1453.34 242.591 1450.3Z" fill="#FF9A3E" fill-opacity="0.26"/>
<path d="M100.767 1467.18C100.767 1467.18 102.793 1465.83 103.468 1465.15C84.8958 1465.15 64.6353 1464.82 43.024 1463.8C35.2574 1463.8 27.1532 1463.13 19.3866 1462.79C18.7113 1463.47 18.0359 1464.14 17.3606 1464.82C25.4648 1465.15 33.2314 1465.49 40.9979 1465.83C62.6092 1466.84 82.5321 1467.18 100.767 1467.18Z" fill="#FF9A3E" fill-opacity="0.26"/>
<path d="M17.0224 1462.79C-13.0308 1461.1 -44.4347 1458.74 -75.8385 1455.7C-76.1762 1456.37 -76.8515 1457.05 -77.1892 1457.72C-45.7853 1460.76 -14.7191 1463.13 14.9963 1464.82C15.6717 1464.14 16.347 1463.46 17.0224 1462.79Z" fill="#FF9A3E" fill-opacity="0.26"/>
<path d="M388.467 1354.73L392.181 1351.69C391.505 1352.37 390.493 1353.05 389.479 1353.72C388.129 1354.73 387.116 1355.75 386.103 1356.76C387.116 1356.08 387.791 1355.41 388.467 1354.73Z" fill="#FF9A3E" fill-opacity="0.26"/>
<path d="M88.6099 1376.68C50.1149 1374.66 10.2691 1371.62 -30.252 1367.57C-30.5897 1368.58 -30.9274 1369.59 -31.6028 1370.27C8.58067 1373.98 48.4265 1377.02 86.5838 1379.38C87.2592 1378.37 87.9346 1377.36 88.6099 1376.68Z" fill="#FF9A3E" fill-opacity="0.26"/>
<path d="M352.336 1367.57C352.336 1367.57 349.972 1369.59 348.959 1370.27C365.167 1366.55 377.324 1361.82 385.09 1356.76C386.441 1355.75 387.454 1354.73 388.467 1353.72C380.7 1359.12 368.544 1363.51 351.998 1367.23L352.336 1367.57Z" fill="#FF9A3E" fill-opacity="0.26"/>
<path d="M197.004 1382.76C197.004 1382.76 198.692 1381.07 199.368 1380.06C175.73 1380.06 149.729 1379.38 122.04 1378.37C111.91 1378.03 101.779 1377.36 91.6491 1377.02C90.9738 1378.03 90.2984 1379.05 89.623 1379.72C99.7533 1380.4 109.884 1380.73 120.014 1381.07C147.703 1382.09 173.029 1382.76 196.666 1382.76H197.004Z" fill="#FF9A3E" fill-opacity="0.26"/>
<path d="M287.501 1376.68C262.851 1378.71 234.486 1379.72 202.069 1379.72C201.394 1380.73 200.381 1381.75 199.706 1382.42C231.785 1382.42 260.15 1381.41 284.462 1379.38C285.475 1378.37 286.488 1377.36 287.501 1376.68Z" fill="#FF9A3E" fill-opacity="0.26"/>
<path d="M350.985 1367.9C334.438 1371.62 313.84 1374.66 289.527 1376.68C288.514 1377.7 287.501 1378.71 286.488 1379.38C310.801 1377.36 331.062 1374.66 347.608 1370.94C348.621 1369.93 349.634 1368.92 350.985 1368.24V1367.9Z" fill="#FF9A3E" fill-opacity="0.26"/>
<path d="M384.076 1260.52C355.374 1262.89 321.944 1263.9 284.124 1263.9C283.449 1265.25 282.774 1266.26 282.098 1267.61C319.58 1267.61 353.01 1266.26 381.713 1264.24C382.388 1262.89 383.401 1261.87 384.076 1260.52Z" fill="#FF9A3E" fill-opacity="0.26"/>
<path d="M151.08 1260.18C105.831 1257.82 59.232 1254.11 11.9574 1249.72C11.6197 1251.07 11.282 1252.08 10.9443 1253.43C58.219 1257.82 104.818 1261.54 149.729 1263.9C150.405 1262.55 150.742 1261.54 151.418 1260.18H151.08Z" fill="#FF9A3E" fill-opacity="0.26"/>
<path d="M278.722 1267.61C278.722 1267.61 280.073 1265.25 280.748 1263.9C253.059 1263.9 222.668 1263.22 190.251 1261.87C178.432 1261.53 166.613 1260.86 154.795 1260.18C154.119 1261.53 153.782 1262.55 153.106 1263.9C164.925 1264.57 176.744 1265.25 188.562 1265.59C220.979 1266.94 250.695 1267.61 278.722 1267.61Z" fill="#FF9A3E" fill-opacity="0.26"/>
<path d="M502.263 1233.85C493.146 1239.92 478.626 1245.33 459.716 1249.72C458.703 1251.07 458.028 1252.08 457.015 1253.43C475.924 1249.04 490.107 1243.64 499.224 1237.56C500.237 1236.21 500.912 1235.2 501.925 1233.85H502.263Z" fill="#FF9A3E" fill-opacity="0.26"/>
<path d="M458.366 1250.05C439.118 1254.44 415.143 1257.82 386.441 1260.18C385.765 1261.53 384.752 1262.55 384.077 1263.9C412.442 1261.53 436.417 1258.16 455.664 1253.77C456.677 1252.42 457.353 1251.4 458.366 1250.05Z" fill="#FF9A3E" fill-opacity="0.26"/>
<path d="M508.342 1229.79L511.381 1226.08C509.355 1228.78 506.653 1231.14 503.277 1233.51C502.264 1234.86 501.588 1235.87 500.575 1237.22C503.952 1234.86 506.653 1232.49 508.342 1230.13V1229.79Z" fill="#FF9A3E" fill-opacity="0.26"/>
<path d="M7.9059 1249.04C-39.3688 1244.31 -87.6564 1238.91 -135.606 1232.49C-135.606 1233.85 -135.944 1234.86 -136.282 1236.21C-88.6694 1242.63 -40.7194 1248.03 6.55524 1252.76C6.89291 1251.4 7.23061 1250.39 7.56828 1249.04H7.9059Z" fill="#FF9A3E" fill-opacity="0.26"/>
<path d="M539.07 1106.2C517.796 1110.93 491.458 1114.65 460.391 1117.35C459.716 1118.7 459.378 1120.05 458.703 1121.74C490.107 1119.04 516.446 1115.32 537.382 1110.59C538.057 1109.24 538.732 1107.89 539.07 1106.2Z" fill="#FF9A3E" fill-opacity="0.26"/>
<path d="M200.719 1121.4C200.719 1121.4 201.394 1118.7 202.069 1117.01C152.431 1114.31 101.442 1110.26 49.4398 1105.19C49.4398 1106.54 48.7644 1107.89 48.4268 1109.58C100.429 1114.65 151.418 1118.36 200.719 1121.06V1121.4Z" fill="#FF9A3E" fill-opacity="0.26"/>
<path d="M587.358 1088.31C577.227 1095.06 561.694 1101.14 540.758 1105.87C540.083 1107.22 539.408 1108.57 539.07 1110.26C560.006 1105.53 575.539 1099.45 585.669 1092.7C586.345 1091.35 587.02 1090 587.695 1088.31H587.358Z" fill="#FF9A3E" fill-opacity="0.26"/>
<path d="M457.352 1117.68C425.611 1120.05 389.142 1121.4 347.945 1121.4C347.608 1122.75 346.932 1124.1 346.595 1125.79C387.791 1125.79 424.26 1124.44 456.002 1122.07C456.677 1120.72 457.015 1119.04 457.69 1117.68H457.352Z" fill="#FF9A3E" fill-opacity="0.26"/>
<path d="M597.825 1079.53L599.852 1075.14C597.826 1079.53 594.111 1083.92 588.371 1087.97C587.695 1089.32 587.02 1091.01 586.344 1092.36C592.085 1088.31 595.799 1084.25 597.825 1079.86V1079.53Z" fill="#FF9A3E" fill-opacity="0.26"/>
<path d="M342.88 1125.79C342.88 1125.79 343.894 1123.09 344.231 1121.4C313.84 1121.4 280.748 1120.72 244.955 1119.37C232.123 1118.7 218.953 1118.36 205.784 1117.68C205.446 1119.04 205.109 1120.39 204.433 1122.07C217.603 1122.75 230.434 1123.42 243.266 1123.76C278.722 1125.11 311.814 1125.79 342.205 1125.79H342.88Z" fill="#FF9A3E" fill-opacity="0.26"/>
<path d="M44.7125 1105.19C-7.2896 1100.13 -59.9671 1094.05 -112.645 1086.96C-112.645 1088.31 -112.982 1090 -113.32 1091.35C-60.98 1098.44 -7.96491 1104.52 43.6995 1109.58C43.6995 1108.23 44.3748 1106.88 44.7125 1105.19Z" fill="#FF9A3E" fill-opacity="0.26"/>
<path d="M385.428 960.665C385.428 960.665 386.103 957.288 386.103 955.938C354.362 955.938 320.256 955.262 283.112 953.574C269.605 952.899 256.098 952.223 242.591 951.548C242.591 953.236 241.915 954.925 241.915 956.275C255.422 956.951 268.929 957.626 282.436 958.301C319.243 959.652 353.686 960.665 385.428 960.665Z" fill="#FF9A3E" fill-opacity="0.26"/>
<path d="M238.538 951.548C187.211 948.847 133.859 944.457 79.8304 939.392C79.8304 941.08 79.4927 942.768 79.155 944.119C133.183 949.184 186.198 953.574 237.863 956.275C237.863 954.587 238.538 952.899 238.538 951.548Z" fill="#FF9A3E" fill-opacity="0.26"/>
<path d="M503.951 951.886C471.197 954.587 433.039 955.938 390.154 955.938C390.154 957.626 389.479 959.315 389.479 960.665C432.364 960.665 470.521 959.315 503.276 956.613C503.276 954.925 503.951 953.236 504.289 951.886H503.951Z" fill="#FF9A3E" fill-opacity="0.26"/>
<path d="M638.685 921.496C628.217 928.587 612.008 934.665 590.397 939.73C590.397 941.418 589.721 943.107 589.384 944.458C610.995 939.392 627.204 933.314 637.671 926.223C637.671 924.535 638.347 922.846 638.685 921.496Z" fill="#FF9A3E" fill-opacity="0.26"/>
<path d="M75.1036 938.716C21.0755 933.314 -33.6281 927.236 -88.3316 919.807C-88.3316 921.495 -88.6693 923.183 -89.007 924.534C-34.3034 931.963 20.4001 938.041 74.4283 943.444C74.4283 941.756 74.7659 940.067 75.1036 938.716Z" fill="#FF9A3E" fill-opacity="0.26"/>
<path d="M652.192 908.325L653.205 903.26C651.855 909.676 647.465 915.416 640.036 920.819C640.036 922.508 639.361 924.196 639.023 925.547C646.789 920.144 651.179 914.403 652.192 907.987V908.325Z" fill="#FF9A3E" fill-opacity="0.26"/>
<path d="M588.371 940.067C566.422 945.132 539.07 948.847 506.653 951.548C506.653 953.237 505.978 954.925 505.64 956.276C538.057 953.574 565.409 949.86 587.358 944.795C587.358 943.106 588.033 941.418 588.371 940.067Z" fill="#FF9A3E" fill-opacity="0.26"/>
<path d="M96.7141 760.761C43.699 755.696 -10.3292 749.28 -64.0197 742.189C-64.0197 743.877 -64.3574 745.566 -64.6951 747.254C-11.0046 754.345 43.0236 760.761 96.3764 765.826C96.3764 764.138 96.3764 762.45 96.7141 760.761Z" fill="#FF9A3E" fill-opacity="0.26"/>
<path d="M601.54 761.774C579.929 766.84 552.915 770.554 521.173 773.255C521.173 774.944 521.173 776.632 521.173 778.321C553.253 775.619 580.267 771.905 601.878 766.84C601.878 765.151 601.878 763.463 601.878 761.774H601.54Z" fill="#FF9A3E" fill-opacity="0.26"/>
<path d="M257.11 772.917C206.459 770.216 154.119 766.164 101.104 761.099C101.104 762.787 101.104 764.476 100.766 766.164C153.782 771.229 206.459 775.281 256.773 777.983C256.773 776.294 256.773 774.606 256.773 772.917H257.11Z" fill="#FF9A3E" fill-opacity="0.26"/>
<path d="M402.649 782.372C402.649 782.372 402.649 778.996 402.649 777.307C371.582 777.307 337.815 776.632 301.346 774.944C288.176 774.268 275.007 773.593 261.5 772.917C261.5 774.606 261.5 776.294 261.5 777.983C275.007 778.658 288.176 779.333 301.346 780.009C337.815 781.359 371.582 782.372 402.649 782.372Z" fill="#FF9A3E" fill-opacity="0.26"/>
<path d="M665.361 726.318V721.253C665.361 729.358 660.972 736.449 651.854 742.865C651.854 744.553 651.854 746.241 651.854 747.93C660.972 741.514 665.699 734.085 665.361 726.318Z" fill="#FF9A3E" fill-opacity="0.26"/>
<path d="M518.134 773.255C485.717 775.956 448.573 777.307 406.363 777.307C406.363 778.995 406.363 780.684 406.363 782.372C448.573 782.372 486.055 781.021 518.472 778.32C518.472 776.631 518.472 774.943 518.472 773.255H518.134Z" fill="#FF9A3E" fill-opacity="0.26"/>
<path d="M650.841 743.539C640.373 750.631 624.502 756.371 603.228 761.436C603.228 763.125 603.228 764.813 603.228 766.501C624.502 761.436 640.71 755.358 650.841 748.605C650.841 746.916 650.841 745.228 650.841 743.539Z" fill="#FF9A3E" fill-opacity="0.26"/>
<path d="M256.773 600.027C209.499 597.326 160.873 593.611 111.235 588.884C111.235 590.572 111.235 591.923 111.235 593.611C160.873 598.339 209.836 602.053 257.111 604.755C257.111 603.066 257.111 601.716 257.111 600.027H256.773Z" fill="#FF9A3E" fill-opacity="0.26"/>
<path d="M392.856 608.807C392.856 608.807 392.518 605.768 392.181 604.079C363.141 604.079 331.737 603.404 297.969 602.053C285.813 601.715 273.319 601.04 260.825 600.365C260.825 602.053 260.825 603.404 260.825 605.092C273.319 605.768 285.813 606.443 297.969 606.781C331.737 608.131 363.478 608.807 392.518 608.807H392.856Z" fill="#FF9A3E" fill-opacity="0.26"/>
<path d="M107.183 588.208C57.5442 583.481 7.23046 577.74 -42.7456 570.987C-42.7456 572.338 -43.0832 574.026 -43.4209 575.714C6.89284 582.468 57.2065 588.208 106.845 592.936C106.845 591.247 106.845 589.897 106.845 588.208H107.183Z" fill="#FF9A3E" fill-opacity="0.26"/>
<path d="M624.502 572C624.502 572 625.515 575.04 625.853 576.728C634.97 570.312 639.36 563.221 638.347 555.117C638.009 553.428 637.334 552.078 636.996 550.389C638.009 558.156 633.62 565.585 624.502 572Z" fill="#FF9A3E" fill-opacity="0.26"/>
<path d="M499.899 600.365C469.846 602.729 435.066 604.079 395.557 604.079C395.557 605.768 395.895 607.118 396.233 608.807C435.741 608.807 470.522 607.456 500.912 605.092C500.912 603.404 500.237 602.053 499.899 600.365Z" fill="#FF9A3E" fill-opacity="0.26"/>
<path d="M577.565 589.559C557.305 593.949 532.316 597.663 502.601 600.027C502.601 601.715 503.276 603.066 503.614 604.754C533.667 602.391 558.655 598.676 578.916 594.287C578.578 592.598 578.24 591.247 577.903 589.559H577.565Z" fill="#FF9A3E" fill-opacity="0.26"/>
<path d="M623.827 572.338C614.034 578.753 599.177 584.494 579.591 589.221C579.929 590.91 580.267 592.26 580.604 593.949C600.527 589.221 615.385 583.818 625.178 577.065L623.827 572.338Z" fill="#FF9A3E" fill-opacity="0.26"/>
<path d="M520.16 428.826C502.601 432.878 480.315 435.917 454.313 437.943C454.989 439.294 455.327 440.644 456.002 442.333C482.341 440.307 504.627 436.93 522.186 432.878C521.511 431.527 520.836 430.176 520.16 428.826Z" fill="#FF9A3E" fill-opacity="0.26"/>
<path d="M107.183 427.812C63.623 423.76 19.3874 418.357 -24.5105 412.617C-24.5105 413.968 -24.5105 415.318 -24.8481 416.669C19.3874 422.409 63.623 427.812 107.521 431.864C107.521 430.514 107.521 429.163 107.521 427.475L107.183 427.812Z" fill="#FF9A3E" fill-opacity="0.26"/>
<path d="M238.539 437.943C197.005 435.579 154.457 432.54 110.897 428.15C110.897 429.501 110.897 430.851 110.897 432.54C154.457 436.592 197.68 439.969 239.214 442.332C239.214 440.982 238.876 439.631 238.539 437.943Z" fill="#FF9A3E" fill-opacity="0.26"/>
<path d="M560.681 413.631C552.24 419.371 539.07 424.436 521.511 428.151C522.186 429.502 522.862 430.852 523.537 432.541C541.096 428.489 554.266 423.423 562.708 417.683C562.032 416.332 561.357 414.982 560.681 413.631Z" fill="#FF9A3E" fill-opacity="0.26"/>
<path d="M358.751 445.71C358.751 445.71 357.738 443.008 357.4 441.32C331.737 441.32 304.047 440.645 274.332 439.632C263.526 439.294 252.721 438.618 241.577 437.943C241.577 439.294 241.915 440.645 242.253 442.333C253.396 443.008 264.202 443.346 275.007 444.021C304.723 445.372 332.75 445.71 358.413 445.71H358.751Z" fill="#FF9A3E" fill-opacity="0.26"/>
<path d="M574.526 398.435C574.526 398.435 573.176 395.734 572.163 394.383C572.838 401.474 569.461 407.552 561.357 413.293C562.032 414.644 562.708 415.994 563.721 417.345C571.825 411.605 575.539 405.526 574.526 398.435Z" fill="#FF9A3E" fill-opacity="0.26"/>
<path d="M452.287 438.28C425.949 440.306 395.22 441.657 360.777 441.657C361.115 443.008 361.79 444.359 362.128 446.047C396.908 446.047 427.637 445.034 453.976 442.67C453.3 441.319 452.963 439.969 452.287 438.28Z" fill="#FF9A3E" fill-opacity="0.26"/>
<path d="M377.661 293.08C356.05 294.768 331.4 295.781 303.035 295.781C303.71 297.132 304.386 298.145 305.061 299.496C333.426 299.496 358.414 298.483 380.025 296.795C379.35 295.444 378.337 294.431 377.661 293.08Z" fill="#FF9A3E" fill-opacity="0.26"/>
<path d="M466.132 273.157C459.041 277.884 448.573 281.936 434.39 284.975C435.403 286.326 436.079 287.339 437.092 288.69C451.274 285.313 462.08 281.261 469.171 276.533C468.158 275.183 467.145 274.17 466.132 272.819V273.157Z" fill="#FF9A3E" fill-opacity="0.26"/>
<path d="M203.758 292.742C169.991 291.054 135.21 288.353 99.7542 284.638C99.7542 285.989 99.7542 287.002 100.092 288.353C135.548 291.729 170.666 294.431 204.771 296.457C204.434 295.106 204.096 294.093 203.758 292.742Z" fill="#FF9A3E" fill-opacity="0.26"/>
<path d="M97.0521 284.301C61.5961 280.924 25.8024 276.872 -9.99121 271.807C-9.99121 273.157 -9.99121 274.17 -9.99121 275.521C26.1401 280.249 62.2715 284.638 97.7275 288.015C97.7275 286.664 97.7275 285.651 97.3898 284.301H97.0521Z" fill="#FF9A3E" fill-opacity="0.26"/>
<path d="M302.697 299.496C302.697 299.496 301.346 297.132 301.009 295.781C280.073 295.781 257.786 295.444 233.473 294.431C224.694 294.093 215.914 293.755 206.797 293.08C207.135 294.431 207.472 295.444 208.148 296.795C217.265 297.132 226.044 297.808 234.824 298.145C259.137 299.158 281.761 299.496 302.697 299.496Z" fill="#FF9A3E" fill-opacity="0.26"/>
<path d="M478.626 260.663C478.626 260.663 476.6 258.299 475.587 257.286C476.262 263.027 473.223 268.092 466.807 272.819C467.821 274.17 468.834 275.183 469.847 276.534C476.6 271.806 479.301 266.741 478.626 261.001V260.663Z" fill="#FF9A3E" fill-opacity="0.26"/>
<path d="M433.377 285.313C418.857 288.69 400.96 291.054 379.687 292.742C380.362 294.093 381.375 295.106 382.05 296.457C403.662 294.768 421.559 292.067 436.079 289.028C435.066 287.677 434.39 286.664 433.377 285.313Z" fill="#FF9A3E" fill-opacity="0.26"/>
<path d="M319.918 164.425C309.45 166.788 296.618 168.477 281.085 169.828C282.098 170.841 283.111 171.854 284.124 172.867C299.658 171.516 312.827 169.828 323.295 167.464C322.282 166.451 320.931 165.438 319.918 164.425Z" fill="#FF9A3E" fill-opacity="0.26"/>
<path d="M279.735 169.829C264.202 171.179 246.305 171.855 226.044 171.855C226.72 172.868 227.733 173.881 228.408 174.894C249.006 174.894 267.241 174.218 282.774 172.868C281.761 171.855 280.748 170.842 279.735 169.829Z" fill="#FF9A3E" fill-opacity="0.26"/>
<path d="M226.72 174.894C226.72 174.894 225.031 172.868 224.356 171.855C209.498 171.855 193.29 171.517 175.731 170.842C169.315 170.842 162.899 170.166 156.483 169.829C157.159 170.842 157.496 171.855 158.172 172.868C164.587 173.205 171.003 173.543 177.419 173.881C194.978 174.556 211.524 174.894 226.72 174.894Z" fill="#FF9A3E" fill-opacity="0.26"/>
<path d="M347.608 158.347C347.608 158.347 345.244 156.321 343.894 155.308C338.828 158.685 331.399 161.387 320.932 164.088C321.945 165.101 323.295 166.114 324.308 167.127C334.776 164.763 342.543 161.724 347.608 158.347Z" fill="#FF9A3E" fill-opacity="0.26"/>
<path d="M77.1291 163.75C51.4657 161.386 25.8023 158.347 -0.19873 154.97C-0.19873 155.983 -0.19873 156.996 -0.19873 158.009C25.8023 161.386 52.141 164.425 78.1421 167.126C78.1421 166.113 77.8045 165.1 77.4668 164.087L77.1291 163.75Z" fill="#FF9A3E" fill-opacity="0.26"/>
<path d="M154.457 169.828C130.145 168.477 104.819 166.451 79.4934 164.087C79.4934 165.1 79.8311 166.113 80.1688 167.127C105.832 169.49 131.496 171.516 156.146 172.867C155.471 171.854 155.133 170.841 154.457 169.828Z" fill="#FF9A3E" fill-opacity="0.26"/>
<path d="M354.361 146.866C354.361 146.866 351.66 145.178 350.647 144.165C350.984 148.217 348.958 151.931 344.231 155.308C345.582 156.321 346.595 157.334 347.945 158.347C352.673 154.97 355.036 151.256 354.361 147.204V146.866Z" fill="#FF9A3E" fill-opacity="0.26"/>
<path d="M3.85349 66.1613C-10.6666 64.1352 -24.849 62.1092 -39.0314 59.7454C-39.0314 60.4208 -39.7068 61.0961 -40.0444 61.7715C-25.5244 64.1352 -11.0043 66.4989 3.85349 68.525C3.85349 67.8496 3.85349 67.1743 3.85349 66.4989V66.1613Z" fill="#FF9A3E" fill-opacity="0.26"/>
<path d="M48.4267 71.5646C34.2443 70.2139 19.7242 68.5256 5.2041 66.4995C5.2041 67.1749 5.2041 67.8502 5.2041 68.5256C20.0618 70.5516 34.9196 72.24 49.4397 73.5907C49.4397 72.9154 48.7643 72.24 48.4267 71.5646Z" fill="#FF9A3E" fill-opacity="0.26"/>
<path d="M133.521 78.318C133.521 78.318 131.495 76.9673 130.82 75.9543C122.378 75.9543 113.261 75.9543 103.468 75.2789C99.7537 75.2789 96.3769 75.2789 92.6625 74.6036C93.3378 75.2789 94.0132 75.9543 94.6886 76.9673C98.403 76.9673 102.117 77.305 105.832 77.6427C115.962 77.9803 125.079 78.318 133.859 78.318H133.521Z" fill="#FF9A3E" fill-opacity="0.26"/>
<path d="M161.548 74.9414C152.768 75.6167 142.976 75.9544 131.495 75.9544C132.508 76.6298 133.521 77.3051 134.196 78.3181C145.677 78.3181 156.145 77.9805 164.925 77.3051C163.912 76.6298 162.561 75.9544 161.548 74.9414Z" fill="#FF9A3E" fill-opacity="0.26"/>
<path d="M184.172 71.9024C178.432 73.2531 171.003 74.2661 162.561 74.9415C163.912 75.6168 164.925 76.2922 165.938 77.3052C174.718 76.6299 182.146 75.6168 188.225 74.2661C186.874 73.5908 185.523 72.9154 184.172 72.2401V71.9024Z" fill="#FF9A3E" fill-opacity="0.26"/>
<path d="M197.342 66.8372C194.64 68.5256 190.251 70.2139 184.51 71.5646C185.861 72.24 187.211 72.9154 188.562 73.5907C194.303 72.24 198.692 70.5516 201.731 68.5256C200.381 67.8502 198.692 67.1749 197.342 66.4995V66.8372Z" fill="#FF9A3E" fill-opacity="0.26"/>
<path d="M91.6497 74.9415C78.1426 74.2661 63.9602 73.2531 49.7778 71.9024C49.7778 72.5778 50.4531 73.2531 50.7908 73.9285C65.3109 75.2792 79.831 76.2922 93.6757 77.3052C93.0003 76.6299 92.325 75.9545 91.6497 74.9415Z" fill="#FF9A3E" fill-opacity="0.26"/>
<path d="M205.784 62.4471C205.784 62.4471 202.745 61.0964 201.394 60.421C201.394 62.7848 200.381 64.8108 197.68 66.4992C199.031 67.1745 200.719 67.8499 202.07 68.5252C204.771 66.4992 206.122 64.4731 205.784 62.1094V62.4471Z" fill="#FF9A3E" fill-opacity="0.26"/>
<path d="M96.0392 1506.01C96.0392 1506.01 94.6885 1506.35 94.0132 1506.69C94.6885 1506.69 95.3639 1506.35 96.0392 1506.01Z" fill="#FF9A3E" fill-opacity="0.26"/>
<path d="M81.8566 1509.73C85.9087 1508.71 89.9608 1507.7 93.6753 1506.69C88.2725 1508.04 82.532 1509.73 77.1292 1511.08L81.8566 1510.06V1509.73Z" fill="#FF9A3E" fill-opacity="0.26"/>
<path d="M625.853 576.39C625.853 576.39 625.177 573.351 624.502 571.662C609.644 517.972 589.046 466.307 563.72 417.344C563.045 415.994 562.37 414.643 561.357 413.292C535.693 364.667 504.965 318.405 469.509 276.196C468.496 274.845 467.483 273.832 466.47 272.481C431.014 230.272 391.168 192.115 347.608 158.009C346.257 156.996 345.244 155.983 343.893 154.97C299.995 121.203 252.383 92.1624 201.732 68.5251C200.381 67.8497 199.03 67.1744 197.342 66.499C147.703 43.5371 95.3637 25.9779 40.3225 13.8216C40.6602 13.4839 40.9979 13.1462 40.9979 12.8085C97.0521 22.9388 150.405 39.1473 201.056 60.4209C202.407 61.0962 204.095 61.7716 205.446 62.4469C257.11 84.7335 305.736 112.085 350.309 144.165C351.66 145.178 353.011 145.853 354.024 146.866C398.597 179.283 439.118 216.427 475.249 257.286C476.262 258.637 477.275 259.65 478.288 260.663C514.082 301.859 545.486 346.432 571.825 394.382C572.5 395.733 573.175 397.084 574.188 398.435C600.189 446.385 621.125 497.374 636.321 550.389C636.658 551.74 637.334 553.428 637.671 555.116C642.399 572 646.451 589.222 650.166 606.781L647.464 592.598C582.293 298.145 342.205 61.0962 27.1532 10.4448C27.1532 10.4448 23.4387 12.4709 16.0099 12.1332C5.20422 11.7955 -8.97815 9.0941 -15.394 6.73037C-17.42 5.71734 -18.4331 5.04199 -18.7708 4.36664C-21.1345 4.36664 -23.4983 3.69129 -25.862 3.69129C-433.099 -36.1545 -802.517 250.87 -858.909 657.432C-863.299 690.524 -866 723.279 -866 756.034V761.436C-866 741.176 -864.987 720.915 -863.299 700.317C-863.299 698.629 -863.299 696.94 -862.961 695.252C-861.948 683.433 -860.597 671.615 -858.909 659.796C-852.493 613.534 -842.025 568.623 -827.843 525.738C-827.167 524.05 -826.83 522.699 -826.154 521.011C-807.92 467.32 -784.282 416.331 -755.58 369.057C-754.905 367.706 -753.892 366.355 -753.216 365.005C-724.176 317.73 -690.071 274.507 -651.913 234.999C-650.9 233.986 -649.887 232.636 -648.537 231.623C-610.042 192.452 -567.832 157.672 -521.908 127.281C-520.557 126.268 -519.207 125.592 -517.856 124.579C-471.932 94.8638 -422.631 69.5381 -370.967 49.9529C-369.616 49.2776 -367.928 48.9399 -366.577 48.2645C-314.913 29.017 -260.547 15.1723 -204.83 7.40572C-203.142 7.40572 -201.791 7.06805 -200.103 6.73037C-145.737 -0.360825 -89.6827 -2.04921 -32.9532 3.01593C-32.9532 3.35361 -32.6155 4.02896 -31.9401 4.36664C-87.319 1.66523 -141.685 5.04199 -195.038 14.1592C-196.726 14.1592 -198.077 14.8346 -199.765 14.8346C-254.131 24.6272 -307.146 40.498 -357.798 61.4339C-359.148 62.1092 -360.499 62.7846 -362.187 63.1223C-412.501 84.3959 -460.451 111.072 -505.362 142.476C-506.713 143.489 -508.063 144.165 -509.076 145.178C-553.65 176.919 -595.184 213.05 -632.666 253.572C-633.679 254.585 -634.692 255.935 -635.705 256.948C-673.187 297.469 -706.279 342.043 -734.982 389.993C-735.657 391.343 -736.67 392.694 -737.345 394.045C-765.71 441.995 -789.01 493.659 -806.907 547.687C-807.244 549.376 -807.92 550.727 -808.257 552.415C-822.102 595.637 -832.57 640.548 -838.986 686.81C-840.674 698.629 -842.025 710.447 -843.038 722.266C-843.038 723.954 -843.038 725.643 -843.376 727.331C-848.441 785.074 -846.752 841.803 -839.324 896.507C-839.324 898.195 -838.986 899.546 -838.648 901.234C-830.882 955.938 -817.037 1008.62 -797.789 1058.93C-797.114 1060.28 -796.776 1061.63 -796.101 1063.32C-776.516 1113.29 -751.865 1160.57 -722.488 1204.47C-721.812 1205.82 -720.799 1206.83 -720.124 1208.18C-690.408 1251.74 -655.965 1292.26 -617.47 1328.06C-616.457 1329.07 -615.107 1330.08 -614.094 1331.1C-609.029 1335.82 -603.626 1340.55 -598.223 1345.28C-603.288 1340.89 -608.353 1336.5 -613.418 1331.77C-614.431 1330.76 -615.444 1329.74 -616.795 1328.73C-655.29 1292.94 -689.733 1252.75 -719.449 1208.86C-720.462 1207.51 -721.137 1206.49 -722.15 1205.14C-751.528 1161.24 -776.178 1113.97 -795.763 1063.99C-796.439 1062.64 -796.776 1061.29 -797.452 1059.6C-816.699 1009.63 -830.206 956.613 -837.973 901.91C-837.973 900.221 -838.311 898.87 -838.648 897.182C-846.077 842.479 -847.765 785.749 -842.7 728.006C-842.7 726.318 -842.7 724.63 -842.363 722.941C-841.35 711.123 -839.999 699.304 -838.311 687.485C-831.895 641.224 -821.427 596.313 -807.582 553.09C-807.244 551.402 -806.569 550.051 -806.231 548.363C-788.335 494.335 -765.035 442.67 -736.67 394.72C-735.995 393.369 -734.982 392.019 -734.306 390.668C-705.942 342.718 -672.512 298.145 -635.367 257.624C-634.354 256.611 -633.341 255.26 -632.328 254.247C-594.846 213.726 -553.312 177.594 -508.739 145.853C-507.388 144.84 -506.037 144.165 -505.024 143.151C-460.113 111.748 -412.163 85.0712 -361.85 63.4599C-360.499 62.7846 -359.148 62.1092 -357.46 61.7716C-307.146 40.498 -254.131 24.9649 -199.765 14.8346C-198.414 14.8346 -196.726 14.1592 -195.038 14.1592C-142.023 5.04199 -87.6567 1.32755 -32.2778 4.02896C-31.6025 4.36664 -30.5894 5.04199 -29.5764 5.71734C-80.5655 5.71734 -130.879 11.4578 -179.842 22.9388C-181.193 22.9388 -182.544 23.6142 -184.232 23.9518C-234.546 36.1082 -283.509 54.3427 -330.108 77.6423C-331.459 78.3177 -332.81 78.993 -334.16 79.6684C-380.76 103.306 -425.333 132.008 -467.205 165.1C-468.555 166.113 -469.568 167.126 -470.919 167.802C-512.453 201.232 -550.948 239.389 -586.067 280.923C-587.08 282.274 -588.093 283.287 -589.106 284.638C-623.886 326.51 -654.952 372.434 -681.967 421.397C-682.642 422.747 -683.317 424.098 -684.33 425.449C-711.007 474.412 -732.956 526.751 -750.177 581.455C-750.515 583.143 -751.19 584.494 -751.528 586.182C-764.697 629.743 -774.827 674.991 -781.243 721.253C-782.932 733.072 -784.282 744.89 -785.295 756.709C-785.295 758.397 -785.295 760.086 -785.633 761.774C-790.698 819.517 -790.023 875.571 -783.607 929.599C-783.607 931.287 -783.269 932.638 -782.932 934.326C-776.178 988.355 -764.022 1040.02 -747.138 1089.32C-746.8 1090.67 -746.125 1092.02 -745.787 1093.37C-728.566 1142.33 -706.279 1188.26 -679.603 1230.47C-678.927 1231.82 -678.252 1232.83 -677.239 1234.18C-650.225 1276.39 -619.159 1314.55 -584.04 1348.65C-583.027 1349.67 -582.014 1350.68 -581.001 1351.69C-545.545 1385.46 -506.375 1414.84 -464.166 1438.81C-462.815 1439.49 -461.802 1440.17 -460.451 1440.84C-449.983 1446.58 -439.515 1451.98 -428.71 1457.39L-425.333 1459.07C-437.151 1453.67 -448.295 1447.59 -459.776 1441.52C-461.126 1440.84 -462.139 1440.17 -463.49 1439.49C-505.7 1415.51 -544.87 1386.14 -579.988 1352.37C-581.001 1351.36 -582.014 1350.34 -583.027 1349.67C-618.146 1315.9 -649.212 1277.41 -675.888 1235.53C-676.564 1234.18 -677.239 1233.17 -678.252 1231.82C-704.929 1189.61 -726.877 1143.69 -744.437 1095.06C-744.774 1093.71 -745.45 1092.36 -745.787 1091.01C-762.671 1042.05 -774.827 990.381 -781.581 936.353C-781.581 934.664 -781.919 933.313 -782.256 931.625C-788.672 877.597 -789.348 821.205 -784.282 763.8C-784.282 762.112 -784.282 760.423 -783.945 758.735C-782.932 746.916 -781.581 735.098 -779.893 723.279C-773.477 677.017 -763.346 631.769 -750.177 588.209C-749.839 586.52 -749.164 585.169 -748.826 583.481C-731.943 528.778 -709.656 476.438 -683.317 427.475C-682.642 426.124 -681.967 424.773 -680.954 423.423C-654.277 374.46 -623.211 328.536 -588.43 286.664C-587.417 285.313 -586.404 284.3 -585.391 282.949C-550.611 241.078 -511.778 202.92 -470.581 169.49C-469.231 168.477 -468.218 167.464 -466.867 166.789C-425.333 133.359 -380.76 104.656 -334.16 81.0191C-332.81 80.3438 -331.459 79.6684 -330.108 78.993C-283.509 55.6934 -234.546 37.4589 -184.57 25.3026C-183.219 25.3026 -181.868 24.6272 -180.18 24.2895C-131.217 12.8085 -81.2408 6.73037 -30.2518 6.73037C-29.9141 6.73037 -29.5764 6.73037 -28.9011 7.40572C-27.888 7.7434 -26.8751 8.08107 -25.5244 8.75643C-69.0845 11.4578 -112.645 19.8997 -154.854 34.0821C-156.205 34.4198 -157.218 34.7575 -158.569 35.4328C-202.129 50.2906 -244.338 70.8888 -284.86 96.5522C-285.873 97.2276 -287.223 97.9029 -288.236 98.9159C-328.757 124.917 -367.59 155.646 -404.059 191.101C-405.072 192.115 -406.085 193.128 -407.098 194.141C-443.567 229.597 -477.335 269.442 -508.063 312.665C-509.076 314.016 -509.752 315.029 -510.765 316.379C-541.493 359.94 -569.183 407.214 -593.158 457.19C-593.833 458.541 -594.508 459.892 -595.184 461.58C-618.821 511.894 -639.082 564.909 -654.615 619.95C-654.952 621.638 -655.628 622.989 -655.965 624.678C-668.122 668.575 -677.914 714.162 -683.993 760.423C-685.681 772.242 -687.032 784.061 -688.382 795.879C-688.382 797.568 -688.382 799.256 -688.72 800.944C-694.461 858.349 -694.798 914.066 -690.408 967.419C-690.408 968.769 -690.408 970.458 -690.071 971.809C-685.343 1025.16 -675.888 1075.81 -662.381 1123.43C-662.044 1124.78 -661.706 1126.13 -661.031 1127.48C-647.186 1175.09 -628.951 1219.33 -606.665 1259.85C-605.989 1260.86 -605.314 1262.21 -604.639 1263.22C-582.352 1303.41 -556.351 1339.88 -526.636 1371.62C-525.96 1372.63 -524.947 1373.31 -524.272 1374.32C-494.556 1405.72 -461.464 1432.74 -425.67 1454.35C-424.657 1455.02 -423.644 1455.7 -422.631 1456.04C-398.994 1469.88 -374.344 1481.36 -348.68 1490.82C-374.006 1481.7 -398.319 1470.22 -421.618 1456.71C-422.631 1456.04 -423.644 1455.36 -424.657 1455.02C-460.451 1433.41 -493.206 1406.4 -522.921 1374.99C-523.596 1373.98 -524.609 1373.31 -525.285 1372.29C-554.663 1340.55 -580.664 1304.08 -602.613 1263.9C-603.288 1262.89 -603.963 1261.53 -604.639 1260.52C-626.588 1220 -644.822 1175.76 -658.667 1128.15C-659.005 1126.8 -659.342 1125.45 -660.018 1124.1C-673.525 1076.49 -682.98 1025.84 -687.369 972.484C-687.369 971.133 -687.369 969.445 -687.707 968.094C-692.097 914.741 -691.759 859.025 -686.019 801.62C-686.019 799.931 -686.019 798.243 -685.681 796.555C-684.33 784.736 -682.98 772.917 -681.291 761.099C-674.875 714.837 -665.42 669.589 -653.264 625.353C-652.926 623.665 -652.251 622.314 -651.913 620.625C-636.38 565.584 -616.457 512.569 -592.82 462.255C-592.145 460.905 -591.469 459.554 -590.794 457.866C-566.819 407.89 -539.467 360.615 -508.739 317.055C-507.726 315.704 -507.05 314.691 -506.037 313.34C-475.309 269.78 -441.541 229.934 -405.41 194.478C-404.397 193.465 -403.384 192.452 -402.371 191.439C-366.239 156.321 -327.407 125.255 -287.223 99.2536C-286.21 98.5783 -284.86 97.9029 -283.846 96.8899C-243.325 71.2265 -201.116 50.6283 -158.231 35.7705C-156.88 35.4328 -155.867 34.7575 -154.517 34.4198C-112.307 20.2374 -69.4222 11.4578 -25.862 8.75643C-24.1736 9.43178 -22.1476 9.76945 -20.1215 10.4448C-54.5645 15.5099 -89.0074 26.9909 -122.775 43.5371C-123.788 43.8747 -124.801 44.5501 -125.814 44.8878C-160.595 62.1092 -194.362 85.4089 -227.117 113.098C-228.13 113.774 -229.143 114.787 -229.818 115.462C-262.573 143.489 -293.977 176.581 -323.692 214.063C-324.705 215.076 -325.381 216.09 -326.394 217.103C-356.109 254.585 -383.799 296.119 -409.462 341.03C-410.137 342.38 -410.813 343.731 -411.488 344.744C-436.814 389.655 -460.113 438.28 -480.374 489.269C-481.049 490.62 -481.387 492.309 -482.062 493.659C-502.323 544.986 -519.544 598.677 -533.389 654.393C-533.727 656.081 -534.064 657.432 -534.74 659.121C-545.545 703.356 -554.663 748.942 -560.741 795.204C-562.429 807.023 -563.78 818.841 -565.131 830.66C-565.131 832.348 -565.468 834.037 -565.806 835.387C-571.884 892.792 -573.91 948.171 -571.884 1000.85C-571.884 1002.2 -571.884 1003.89 -571.884 1005.24C-569.858 1057.58 -563.78 1107.55 -554.663 1154.15C-554.663 1155.5 -553.987 1156.85 -553.987 1158.21C-544.532 1204.47 -531.363 1247.35 -515.155 1286.18C-514.817 1287.2 -514.142 1288.55 -513.804 1289.56C-497.595 1328.06 -478.01 1362.5 -455.724 1392.22C-455.048 1393.23 -454.373 1393.9 -453.698 1394.92C-431.411 1424.29 -406.085 1448.94 -378.396 1468.19C-377.72 1468.87 -376.707 1469.21 -376.032 1469.88C-350.369 1487.1 -323.017 1499.93 -293.639 1507.7H-292.626C-322.004 1500.27 -349.356 1487.78 -374.681 1470.22C-375.357 1469.54 -376.37 1469.21 -377.045 1468.53C-404.397 1449.28 -429.385 1424.63 -451.671 1395.25C-452.347 1394.58 -453.022 1393.57 -453.698 1392.89C-475.646 1363.18 -494.894 1328.73 -511.102 1290.24C-511.44 1289.22 -512.115 1287.87 -512.453 1286.86C-528.324 1248.03 -541.493 1205.14 -550.611 1158.88C-550.611 1157.53 -551.286 1156.18 -551.286 1154.83C-560.403 1108.57 -566.481 1058.59 -568.507 1006.25C-568.507 1004.9 -568.507 1003.21 -568.507 1001.86C-570.196 949.184 -568.507 893.805 -562.092 836.738C-562.092 835.05 -561.754 833.361 -561.416 832.011C-560.065 820.192 -558.715 808.373 -557.026 796.555C-550.611 750.293 -541.831 704.707 -531.025 660.471C-530.688 658.783 -530.35 657.432 -529.675 655.744C-515.83 600.027 -498.608 546.337 -478.348 495.01C-477.673 493.659 -477.335 491.971 -476.66 490.62C-456.399 439.631 -433.437 391.006 -408.111 345.757C-407.436 344.406 -406.761 343.056 -406.085 342.043C-380.76 297.132 -353.07 255.598 -323.692 218.116C-323.017 217.103 -322.004 216.09 -321.329 215.076C-291.951 177.932 -260.547 144.84 -228.13 116.475C-227.117 115.8 -226.442 114.787 -225.429 114.111C-193.012 86.0843 -159.244 63.1223 -124.801 45.5631C-123.788 44.8878 -122.775 44.5501 -121.762 44.2124C-88.332 27.6663 -54.2268 16.1853 -20.1215 10.7825C-18.0955 11.4578 -15.7317 11.7955 -13.368 12.4709C-37.0053 20.2374 -60.9803 33.7445 -84.6176 52.6543C-85.293 53.3297 -85.9683 53.6673 -86.6437 54.3427C-110.956 73.9279 -134.931 99.2536 -158.569 129.307C-159.244 130.32 -159.919 130.995 -160.595 132.008C-184.232 162.399 -206.856 197.517 -228.805 236.35C-229.481 237.363 -230.156 238.714 -230.831 239.727C-252.78 278.897 -273.379 322.12 -292.964 368.381C-293.639 369.732 -293.977 371.083 -294.652 372.434C-313.9 419.033 -331.797 468.671 -348.005 520.673C-348.343 522.024 -349.018 523.712 -349.356 525.063C-365.226 577.065 -379.409 631.769 -391.565 687.823C-391.903 689.511 -392.24 691.2 -392.578 692.55C-402.033 737.124 -410.137 783.048 -416.553 829.309C-418.242 841.128 -419.592 852.947 -421.281 864.765C-421.281 866.454 -421.618 868.142 -421.956 869.493C-428.71 926.56 -432.424 981.601 -433.437 1033.6C-433.437 1034.95 -433.437 1036.64 -433.437 1037.99C-434.45 1089.66 -432.424 1138.62 -428.034 1183.87C-428.034 1185.22 -428.034 1186.57 -427.697 1187.58C-423.307 1232.49 -416.215 1274.03 -406.761 1311.17C-406.761 1312.19 -406.085 1313.2 -406.085 1314.21C-396.63 1351.02 -384.812 1383.77 -370.967 1411.8C-370.629 1412.48 -370.292 1413.49 -369.616 1414.16C-355.771 1441.52 -339.563 1464.14 -321.666 1481.36C-321.328 1481.7 -320.653 1482.37 -320.315 1482.71C-302.081 1499.26 -282.158 1510.4 -260.547 1515.47C-260.209 1515.47 -259.534 1515.47 -259.196 1515.47H-258.183C-258.183 1515.47 -259.196 1515.47 -259.871 1515.47C-281.145 1510.74 -301.068 1499.6 -318.965 1483.05C-319.302 1482.71 -319.978 1482.04 -320.653 1481.7C-338.212 1464.82 -354.083 1442.19 -367.928 1414.84C-368.266 1414.16 -368.603 1413.15 -368.941 1412.48C-382.448 1384.79 -393.929 1352.03 -403.384 1315.23C-403.384 1314.21 -404.059 1313.2 -404.059 1312.19C-413.176 1275.04 -419.93 1233.51 -424.32 1188.6C-424.32 1187.25 -424.32 1185.9 -424.657 1184.88C-428.71 1139.63 -430.398 1090.67 -429.385 1039.01C-429.385 1037.66 -429.385 1035.97 -429.385 1034.62C-428.372 982.614 -424.32 927.911 -417.904 870.506C-417.904 868.817 -417.566 867.129 -417.229 865.778C-415.878 853.96 -414.189 842.141 -412.839 830.322C-406.423 784.061 -398.319 738.137 -389.201 693.564C-389.201 691.875 -388.526 690.524 -388.188 688.836C-376.37 632.782 -362.187 578.078 -346.317 526.076C-345.979 524.725 -345.304 523.037 -344.966 521.686C-329.095 469.684 -311.198 420.046 -291.951 373.447C-291.275 372.096 -290.938 370.745 -290.262 369.394C-271.015 323.133 -250.417 279.91 -228.805 240.402C-228.13 239.389 -227.455 238.038 -227.117 237.025C-205.506 197.855 -182.881 162.737 -159.582 132.346C-158.906 131.333 -158.231 130.657 -157.556 129.644C-134.256 99.5913 -110.619 74.2656 -86.306 54.3427C-85.6307 53.6673 -84.9553 53.3297 -84.28 52.6543C-60.9803 33.7445 -37.343 19.8997 -14.0433 12.1332C-11.6796 12.4709 -8.97815 13.1462 -6.61444 13.4839C-18.4331 23.2765 -30.9271 39.1473 -43.4211 60.4209C-43.7588 61.0962 -44.0965 61.7716 -44.4342 62.1092C-57.6035 84.0582 -70.7729 111.41 -84.28 143.151C-84.6176 144.165 -84.9553 144.84 -85.293 145.853C-98.8 177.932 -112.307 214.739 -125.476 255.598C-125.814 256.611 -126.152 257.961 -126.489 258.974C-139.659 299.833 -152.828 344.406 -165.322 392.019C-165.322 393.369 -165.998 394.72 -166.335 396.071C-178.829 443.683 -190.986 494.672 -202.467 547.687C-202.467 549.038 -203.142 550.727 -203.48 552.077C-214.961 605.092 -225.766 660.134 -235.221 716.863C-235.221 718.552 -235.896 720.24 -235.896 721.591C-243.663 766.502 -250.754 812.425 -257.17 858.687C-258.858 870.506 -260.547 882.324 -261.898 894.143C-261.898 895.831 -262.235 897.52 -262.573 898.871C-270.002 955.938 -275.742 1010.3 -279.794 1061.97C-279.794 1063.32 -279.794 1065.01 -280.132 1066.36C-284.184 1117.68 -286.886 1165.63 -288.236 1209.87C-288.236 1211.22 -288.236 1212.57 -288.236 1213.58C-289.249 1257.48 -288.912 1297.67 -287.223 1333.46C-287.223 1334.47 -287.223 1335.49 -287.223 1336.5C-285.535 1371.95 -282.158 1403.02 -277.431 1429.02C-277.431 1429.7 -277.431 1430.37 -277.093 1431.39C-272.365 1457.05 -266.287 1477.65 -258.858 1492.84C-258.858 1493.18 -258.521 1493.86 -258.183 1494.19C-250.754 1508.71 -241.975 1517.83 -231.844 1520.53C-231.844 1520.53 -231.169 1520.53 -230.831 1520.53C-230.494 1520.53 -229.818 1520.53 -229.481 1520.53H-228.805C-228.805 1520.53 -229.481 1520.53 -230.156 1520.53H-230.831C-240.624 1517.83 -249.066 1509.05 -256.157 1494.53C-256.157 1494.19 -256.495 1493.52 -256.832 1493.18C-263.924 1478.32 -269.664 1457.72 -274.054 1431.72C-274.054 1431.05 -274.054 1430.37 -274.392 1429.36C-278.781 1403.36 -281.82 1372.29 -283.509 1336.84C-283.509 1335.82 -283.509 1334.81 -283.509 1333.8C-285.197 1298 -285.197 1257.82 -283.846 1213.92C-283.846 1212.57 -283.846 1211.56 -283.846 1210.21C-282.496 1165.97 -279.794 1118.02 -275.405 1066.7C-275.405 1065.34 -275.405 1063.66 -275.067 1062.31C-270.677 1010.98 -264.937 956.613 -257.508 899.208C-257.508 897.52 -257.17 895.831 -256.832 894.481C-255.482 882.662 -253.793 871.181 -252.105 859.025C-245.689 812.763 -238.598 766.839 -230.831 721.928C-230.831 720.24 -230.156 718.552 -229.818 717.201C-220.026 660.809 -209.558 605.43 -198.414 552.415C-198.414 550.727 -197.739 549.376 -197.401 547.687C-186.258 494.672 -174.102 444.021 -161.608 396.071C-161.27 394.72 -160.932 393.369 -160.595 392.019C-148.101 344.406 -135.269 299.833 -122.437 258.637C-122.1 257.286 -121.762 256.273 -121.424 255.26C-108.255 214.739 -95.0856 177.594 -82.2539 145.515C-81.9163 144.502 -81.5786 143.827 -81.2408 142.814C-68.0715 110.735 -55.2398 83.3828 -42.4081 61.4339C-42.0704 60.7585 -41.7328 60.0832 -41.3951 59.4078C-28.9011 38.4719 -17.0824 22.6011 -5.26373 12.4709C-2.56238 12.8085 0.139038 13.4839 2.50275 13.8216C2.84045 25.6402 2.50281 43.1994 1.48981 66.1614C1.48981 66.8367 1.48981 67.5121 1.48981 68.1874C0.139099 91.8247 -1.88696 120.865 -4.58838 154.632C-4.58838 155.646 -4.58838 156.659 -4.58838 157.672C-7.28979 191.439 -11.0042 229.934 -15.394 271.806C-15.394 273.157 -15.394 274.17 -15.7317 275.521C-20.1215 317.73 -24.849 363.654 -30.5895 412.279C-30.5895 413.63 -30.5895 414.981 -30.9271 416.331C-36.33 465.294 -42.4081 516.959 -49.1616 570.649C-49.1616 572.338 -49.4993 573.689 -49.837 575.377C-56.5905 629.067 -63.6817 684.784 -71.1105 741.851C-71.1105 743.539 -71.4482 745.228 -71.7859 746.916C-77.8641 792.165 -83.9423 838.089 -90.3582 884.688C-92.0465 896.507 -93.7349 908.325 -95.4233 920.144C-95.4233 921.833 -95.761 923.521 -96.0986 924.872C-104.203 981.939 -111.969 1035.97 -119.736 1086.96C-119.736 1088.31 -120.074 1089.66 -120.411 1091.35C-127.84 1142 -135.269 1189.27 -142.36 1232.83C-142.36 1234.18 -142.698 1235.2 -143.036 1236.55C-150.127 1279.77 -156.543 1318.94 -162.621 1353.38C-162.621 1354.4 -162.621 1355.41 -163.296 1356.42C-169.374 1390.86 -175.115 1420.58 -180.18 1444.89C-180.18 1445.57 -180.18 1446.24 -180.518 1446.92C-185.583 1471.23 -189.973 1490.14 -193.687 1503.65C-193.687 1503.99 -193.687 1504.32 -193.687 1504.66C-197.401 1517.49 -200.441 1524.92 -202.804 1525.6H-202.129C-202.129 1525.6 -202.129 1525.6 -201.791 1525.6C-199.09 1524.92 -195.713 1517.83 -191.661 1504.66C-191.661 1504.32 -191.661 1503.99 -191.661 1503.65C-187.609 1490.48 -182.881 1471.23 -177.479 1447.26C-177.479 1446.58 -177.479 1445.91 -177.141 1445.23C-171.738 1420.58 -165.998 1390.86 -159.582 1356.76C-159.582 1355.75 -159.244 1354.73 -158.906 1353.72C-152.49 1319.28 -145.737 1280.11 -138.646 1236.88C-138.646 1235.53 -138.308 1234.52 -137.97 1233.17C-130.879 1189.95 -123.45 1142.67 -115.684 1092.02C-115.684 1090.67 -115.346 1089.32 -115.008 1087.63C-107.242 1036.64 -99.4753 982.614 -91.3712 925.547C-91.3712 923.859 -91.0335 922.17 -90.6958 920.819C-89.0074 909.339 -87.319 897.52 -85.6306 885.363C-79.2148 839.102 -73.1367 792.84 -67.0585 747.592C-67.0585 745.903 -66.7208 744.215 -66.3831 742.526C-58.9542 685.797 -51.8631 630.08 -45.4472 576.052C-45.4472 574.364 -45.1096 573.013 -44.7719 571.325C-38.356 517.634 -32.2778 465.97 -27.2127 417.007C-27.2127 415.656 -27.2127 414.305 -26.875 412.955C-21.4722 364.329 -16.7448 318.405 -12.6926 276.196C-12.6926 274.845 -12.6926 273.832 -12.6926 272.481C-8.6405 230.272 -5.26379 192.115 -2.90002 158.347C-2.90002 157.334 -2.90002 156.321 -2.90002 155.308C-0.536316 121.54 1.48975 92.5001 2.1651 68.8628C2.1651 68.1874 2.1651 67.5121 2.1651 66.8367C2.84045 43.8747 3.1781 26.3156 2.1651 14.4969C4.86652 14.8346 7.56799 15.1723 10.2693 15.5099C23.4387 28.6793 35.2574 47.9269 45.7253 71.9019C45.7253 72.5772 46.4007 73.2526 46.7384 73.9279C57.544 98.9159 66.6613 129.307 74.7655 164.087C74.7655 165.1 75.1031 166.113 75.4408 167.126C83.2073 202.245 89.6232 241.753 94.3507 284.638C94.3507 285.988 94.3507 287.001 94.6884 288.352C99.4158 331.575 102.793 378.512 104.481 427.812C104.481 429.163 104.481 430.514 104.481 432.202C106.169 481.841 106.169 534.18 104.481 588.546C104.481 590.235 104.481 591.585 104.481 593.274C102.793 647.64 99.4158 703.694 94.3507 760.761C94.3507 762.449 94.3507 764.138 94.013 765.826C89.9609 811.412 84.558 857.336 78.1422 903.936C76.4538 915.754 74.7654 927.573 73.0771 939.392C73.0771 941.08 72.7394 942.768 72.4018 944.119C63.6222 1000.85 53.8295 1054.88 42.6862 1105.53C42.6862 1106.88 42.0109 1108.23 41.6732 1109.92C30.5299 1160.23 18.3735 1206.83 5.54187 1249.72C5.20416 1251.07 4.86658 1252.08 4.52887 1253.43C-8.3028 1295.98 -22.1476 1334.13 -36.33 1367.9C-36.6677 1368.92 -37.0052 1369.93 -37.6806 1370.6C-51.863 1404.03 -66.3831 1432.74 -81.2408 1456.04C-81.5786 1456.71 -82.2538 1457.39 -82.5916 1458.06C-97.4493 1481.36 -112.645 1498.92 -127.502 1511.08C-127.84 1511.41 -128.178 1511.75 -128.853 1512.09C-143.711 1523.91 -158.906 1529.65 -173.426 1528.97C-173.764 1528.97 -174.439 1528.97 -174.777 1528.97C-175.115 1528.97 -175.79 1528.97 -176.128 1528.97H-175.452C-175.452 1528.97 -174.439 1528.97 -174.102 1528.97C-173.764 1528.97 -173.089 1528.97 -172.751 1528.97C-157.893 1529.65 -142.698 1523.91 -127.165 1512.09C-126.827 1512.09 -126.152 1511.41 -125.814 1511.08C-110.619 1499.26 -95.0856 1481.36 -79.8901 1458.06C-79.5525 1457.39 -78.8771 1456.71 -78.5395 1456.04C-63.3441 1432.74 -48.4863 1404.03 -33.9662 1370.6C-33.6285 1369.59 -33.2908 1368.58 -32.6155 1367.9C-18.0955 1334.13 -4.58844 1295.98 8.58093 1253.43C8.91864 1252.08 9.25635 1251.07 9.59399 1249.72C22.7634 1207.17 34.9197 1160.23 46.063 1109.92C46.063 1108.57 46.7384 1107.22 47.076 1105.53C58.2194 1055.21 68.3496 1001.19 76.7915 944.119C76.7915 942.431 77.1292 940.742 77.4669 939.392C79.1553 927.911 80.8436 916.092 82.532 903.936C88.9479 857.674 94.013 811.412 98.4028 765.826C98.4028 764.138 98.4028 762.449 98.7405 760.761C103.806 703.694 107.182 647.302 108.871 593.274C108.871 591.585 108.871 590.235 108.871 588.546C110.221 534.18 110.221 481.841 108.533 432.202C108.533 430.852 108.533 429.501 108.533 427.812C106.507 378.174 103.13 331.575 98.0651 288.014C98.0651 286.664 98.0651 285.651 97.7275 284.3C92.6624 241.078 85.9088 201.569 77.8046 166.451C77.8046 165.438 77.4669 164.425 77.1292 163.412C69.025 128.631 59.2324 98.2406 48.0891 73.2526C48.0891 72.5772 47.4138 71.9018 47.076 71.2265C36.2704 46.9138 24.114 28.004 10.607 14.4969C13.3084 14.4969 16.0098 14.8346 18.3736 15.1723C43.6993 29.3547 66.999 49.2776 88.9479 74.2656C89.6232 74.9409 90.2986 75.6163 90.9739 76.6293C113.261 102.63 133.521 133.697 152.093 169.49C152.431 170.503 153.106 171.516 153.782 172.529C172.016 208.323 187.887 248.506 201.732 292.404C202.069 293.755 202.407 294.768 202.745 296.119C216.252 340.017 227.395 387.629 236.175 437.605C236.175 438.956 236.512 440.644 236.85 441.995C245.292 492.309 251.37 544.986 254.409 599.69C254.409 601.378 254.409 602.729 254.409 604.417C257.448 659.12 257.448 715.512 254.409 772.917C254.409 774.606 254.409 776.294 254.409 777.983C252.045 823.569 247.656 869.83 241.24 916.092C239.551 927.911 237.863 939.729 235.837 951.548C235.837 953.236 235.162 954.925 235.162 956.275C225.707 1013.01 213.888 1067.03 199.368 1117.01C199.03 1118.36 198.693 1119.71 198.017 1121.4C183.497 1171.38 166.951 1217.64 148.379 1260.18C147.704 1261.53 147.366 1262.55 146.69 1263.9C128.118 1305.77 107.52 1343.59 85.5711 1376.68C84.8958 1377.7 84.2204 1378.37 83.5451 1379.38C61.5961 1412.14 38.2964 1440.17 13.9838 1462.79C13.3084 1463.46 12.6331 1464.14 11.9577 1464.82C-12.355 1487.1 -37.6807 1504.32 -63.6817 1515.47C-64.3571 1515.47 -65.0324 1516.14 -66.0454 1516.48C-91.7088 1527.29 -117.71 1532.01 -144.049 1530.66H-143.036C-116.359 1532.01 -90.0204 1527.29 -64.3571 1516.48C-63.6817 1516.48 -63.0063 1515.8 -61.9933 1515.47C-35.6546 1504.32 -9.99121 1487.44 14.6591 1464.82C15.3345 1464.14 16.0098 1463.46 16.6852 1462.79C41.3355 1440.17 64.9728 1412.14 86.9218 1379.38C87.5971 1378.37 88.2725 1377.36 88.9479 1376.68C110.897 1343.59 131.833 1305.77 150.405 1263.9C151.08 1262.55 151.418 1261.53 152.093 1260.18C170.665 1217.97 187.549 1171.71 202.069 1121.74C202.407 1120.39 202.745 1119.04 203.42 1117.35C217.94 1067.03 229.759 1013.34 239.214 956.613C239.214 954.925 239.889 953.236 239.889 951.886C241.915 940.405 243.604 928.586 245.292 916.43C251.708 870.168 256.098 823.906 258.461 778.32C258.461 776.632 258.461 774.943 258.461 773.255C261.163 715.85 261.163 659.458 258.124 604.755C258.124 603.066 258.124 601.716 258.124 600.027C254.747 545.324 248.669 492.646 240.227 442.332C240.227 440.982 239.889 439.631 239.551 437.943C230.772 387.967 219.291 340.354 205.446 296.456C205.108 295.106 204.771 294.093 204.095 292.742C190.251 248.844 173.705 208.661 155.47 172.867C154.795 171.854 154.457 170.841 153.782 169.828C135.21 134.034 114.611 102.968 91.987 76.967C91.3116 76.2916 90.6362 75.6163 89.9609 74.6033C68.0119 49.6152 44.037 29.6923 18.3736 15.5099C19.049 15.5099 19.7243 15.5099 20.3996 15.5099C22.088 15.5099 23.7764 15.5099 25.4648 15.5099C61.5961 30.03 96.0391 50.2906 128.118 75.6163C129.131 76.2916 130.144 76.967 130.82 77.98C163.574 104.319 193.965 135.723 221.655 171.516C222.33 172.529 223.343 173.542 224.018 174.555C251.708 210.687 276.358 251.208 297.969 295.106C298.645 296.456 299.32 297.469 299.658 298.82C321.269 343.056 339.504 390.668 354.699 440.982C355.037 442.332 355.712 443.683 356.05 445.372C370.907 495.685 382.051 548.701 389.48 603.404C389.48 605.092 389.817 606.443 390.155 608.131C397.246 662.835 400.623 719.565 399.948 776.969C399.948 778.658 399.948 780.346 399.948 782.035C398.935 827.621 395.558 873.883 389.142 920.144C387.453 931.963 385.765 943.781 383.739 955.262C383.739 956.951 383.064 958.639 383.064 959.99C373.271 1016.72 359.089 1070.41 341.867 1120.72C341.53 1122.07 340.854 1123.43 340.516 1125.11C322.957 1175.09 302.021 1221.35 278.384 1263.22C277.709 1264.57 277.033 1265.59 276.358 1266.94C252.383 1308.81 225.707 1346.29 197.004 1379.38C196.329 1380.4 195.316 1381.41 194.641 1382.08C165.6 1414.5 134.196 1442.53 101.442 1464.82C100.429 1465.49 99.4158 1466.17 98.7405 1466.84C65.6482 1489.13 30.8676 1505.67 -4.92609 1516.48C-5.93909 1516.48 -6.95215 1517.16 -7.96515 1517.49C-34.9792 1525.26 -62.3311 1529.99 -90.3582 1531H-88.6697C-60.9803 1529.99 -33.6285 1525.26 -6.61444 1517.49C-5.60138 1517.49 -4.58838 1516.82 -3.57532 1516.48C32.556 1505.67 67.3365 1488.79 100.766 1466.84C101.78 1466.17 102.793 1465.49 103.468 1464.82C136.56 1442.53 167.964 1414.5 197.342 1382.08C198.017 1381.07 199.03 1380.4 199.706 1379.38C228.746 1346.63 255.76 1308.81 279.735 1266.94C280.41 1265.59 281.086 1264.57 281.761 1263.22C305.398 1221.01 326.672 1174.75 344.231 1125.11C344.569 1123.76 345.244 1122.41 345.582 1120.72C362.803 1070.75 376.985 1016.72 386.778 959.99C386.778 958.302 387.453 956.613 387.453 955.262C389.479 943.781 391.168 931.963 392.856 920.144C399.272 873.883 402.649 827.621 403.662 782.035C403.662 780.346 403.662 778.658 403.662 776.969C404.337 719.565 400.961 663.173 393.869 608.131C393.869 606.443 393.532 605.092 393.194 603.404C385.765 548.701 374.284 495.685 359.426 445.372C359.089 444.021 358.413 442.67 358.076 440.982C342.88 390.668 324.308 343.056 302.697 298.82C302.021 297.469 301.346 296.456 300.671 295.106C278.722 251.208 253.734 210.687 226.044 174.555C225.369 173.542 224.356 172.529 223.681 171.516C195.654 135.723 164.925 103.981 132.17 77.98C131.157 77.3047 130.144 76.6293 129.469 75.6163C97.0521 50.2906 62.6091 30.03 26.1401 15.5099C28.1662 15.5099 30.1922 15.5099 31.5429 15.5099C76.4539 29.6923 119.339 49.9529 159.522 74.9409C160.873 75.6163 161.886 76.2916 162.899 77.3047C204.095 103.306 242.253 134.71 277.709 170.166C278.722 171.179 279.735 172.192 280.748 173.205C315.866 208.998 347.608 249.182 375.635 293.08C376.31 294.43 377.323 295.443 377.999 296.794C406.026 340.692 430.001 388.304 449.924 438.28C450.599 439.631 450.937 440.982 451.612 442.67C471.197 492.984 486.73 545.661 497.874 600.365C497.874 602.053 498.549 603.404 498.886 605.092C509.354 659.796 515.433 716.188 516.108 773.593C516.108 775.281 516.108 776.969 516.108 778.658C516.446 824.244 513.744 870.506 507.328 916.767C505.64 928.586 503.952 940.405 501.926 951.886C501.926 953.574 501.25 955.262 500.913 956.613C490.445 1013.34 475.249 1067.37 455.664 1117.35C454.989 1118.7 454.651 1120.05 453.976 1121.74C434.053 1171.71 409.74 1217.97 382.051 1260.18C381.375 1261.53 380.362 1262.55 379.687 1263.9C351.66 1305.77 320.256 1343.59 285.475 1376.68C284.462 1377.7 283.449 1378.71 282.436 1379.38C247.656 1412.14 210.174 1440.17 170.328 1462.79C169.315 1463.46 167.964 1464.14 166.951 1464.82C127.105 1487.1 84.8958 1504.32 41.3356 1515.47C39.9849 1515.47 38.9718 1516.14 37.6211 1516.48C17.6982 1521.55 -2.56238 1524.92 -23.1606 1527.62H-21.1345C-0.873962 1524.92 19.049 1521.21 38.6342 1516.48C39.9849 1516.48 40.9979 1515.8 42.3486 1515.47C86.2465 1504.32 128.456 1487.1 168.639 1464.82C169.652 1464.14 171.003 1463.46 172.016 1462.79C211.862 1440.17 249.682 1412.14 284.462 1379.38C285.475 1378.37 286.488 1377.36 287.501 1376.68C322.282 1343.59 353.686 1305.77 382.051 1263.9C382.726 1262.55 383.739 1261.53 384.414 1260.18C412.442 1217.97 436.417 1171.71 456.339 1121.4C457.015 1120.05 457.352 1118.7 458.028 1117.01C477.613 1066.7 493.146 1013.01 503.614 956.275C503.614 954.587 504.289 952.899 504.627 951.548C506.653 940.067 508.679 928.248 510.03 916.43C516.446 870.168 519.485 823.906 518.809 778.32C518.809 776.632 518.809 774.943 518.809 773.255C518.134 715.85 512.056 659.458 501.25 604.755C501.25 603.066 500.575 601.716 500.237 600.027C489.432 545.324 473.561 492.646 453.638 442.332C452.963 440.982 452.625 439.631 451.95 437.943C432.027 387.967 407.714 340.354 379.687 296.456C379.012 295.106 377.999 294.093 377.323 292.742C349.296 248.844 317.217 208.661 282.099 172.867C281.086 171.854 280.073 170.841 279.059 169.828C243.604 134.372 205.108 102.968 163.912 76.967C162.561 76.2916 161.548 75.6163 160.535 74.6033C120.014 49.6152 77.1292 29.6923 32.2183 15.5099C33.9067 15.5099 35.2573 15.5099 36.2704 14.8346C87.5971 28.3416 136.222 47.2515 182.484 71.5642C183.835 72.2395 185.186 72.9149 186.536 73.5902C233.811 98.9159 277.709 129.307 318.23 164.087C319.243 165.1 320.594 166.113 321.607 167.126C362.128 202.245 398.597 241.753 431.351 284.975C432.364 286.326 433.04 287.339 434.053 288.69C466.47 331.912 494.834 378.849 518.472 428.488C519.147 429.838 519.823 431.189 520.498 432.54C543.798 482.178 562.37 534.856 575.877 588.884C576.214 590.572 576.552 591.923 576.89 593.611C590.059 647.977 597.826 704.031 599.514 761.436C599.514 763.125 599.514 764.813 599.514 766.502C600.865 812.088 598.501 858.012 592.085 904.611C590.397 916.43 588.708 928.248 586.345 940.067C586.345 941.755 585.669 943.444 585.332 944.794C574.526 1001.52 558.318 1055.55 536.706 1106.2C536.031 1107.55 535.356 1108.9 535.018 1110.59C513.407 1160.91 486.73 1207.51 456.002 1250.05C454.989 1251.4 454.313 1252.42 453.3 1253.77C422.234 1295.98 387.116 1334.47 348.621 1367.9C347.608 1368.92 346.257 1369.93 345.244 1370.6C306.411 1404.03 264.539 1432.4 219.629 1456.04C218.278 1456.71 216.927 1457.39 215.914 1458.06C176.744 1477.98 135.885 1494.19 93.3376 1506.01C136.223 1494.19 177.757 1478.32 216.927 1458.06C218.278 1457.39 219.629 1456.71 220.641 1456.04C265.552 1432.74 307.762 1404.03 346.595 1370.6C347.608 1369.59 348.958 1368.58 349.971 1367.9C388.466 1334.13 423.922 1295.98 454.651 1253.43C455.664 1252.08 456.339 1251.07 457.352 1249.72C488.081 1207.17 514.757 1160.23 536.369 1110.26C537.044 1108.91 537.719 1107.55 538.057 1105.87C559.331 1055.55 575.877 1001.52 586.682 944.457C586.682 942.768 587.358 941.08 587.695 939.729C589.721 928.248 591.748 916.43 593.436 904.273C599.852 858.012 602.215 811.75 600.865 766.164C600.865 764.475 600.865 762.787 600.865 761.099C598.839 704.031 591.072 647.64 577.903 593.274C577.565 591.585 577.227 590.235 576.89 588.546C563.383 534.18 544.811 481.841 521.511 432.202C520.836 430.852 520.16 429.501 519.485 427.812C495.847 378.174 467.483 331.237 435.066 288.014C434.053 286.664 433.377 285.651 432.364 284.3C399.61 241.078 362.803 201.569 322.282 166.451C321.269 165.438 319.918 164.425 318.905 163.412C278.047 128.631 233.811 98.2406 186.536 72.9149C185.186 72.2395 183.835 71.5642 182.484 70.8888C136.222 46.5761 87.2595 27.6663 35.9327 14.1592C36.9457 14.1592 37.6212 13.4839 38.2965 13.1462C93.3376 25.3026 145.677 42.8617 195.316 65.8237C196.667 66.499 198.355 67.1744 199.706 67.8497C250.357 91.8247 297.969 120.865 341.53 154.632C342.88 155.646 343.893 156.659 345.244 157.672C388.804 191.777 428.65 229.934 464.106 272.144C465.119 273.494 466.132 274.507 467.145 275.858C502.263 318.068 532.992 364.329 558.655 412.955C559.331 414.305 560.006 415.656 560.681 417.007C586.007 465.97 606.605 517.634 621.463 571.325L622.814 576.052C637.334 629.743 646.113 685.797 648.815 742.526C648.815 744.215 648.815 745.903 648.815 747.592C650.503 792.84 648.815 839.102 642.061 885.363C640.373 897.182 638.347 909.001 636.321 920.819C636.321 922.508 635.645 924.196 635.308 925.547C624.502 982.614 607.281 1036.64 584.994 1087.63C584.319 1088.98 583.643 1090.67 582.968 1092.02C560.344 1142.67 532.317 1189.95 499.9 1233.17C498.887 1234.52 498.211 1235.53 497.198 1236.88C464.444 1280.11 427.299 1318.94 386.44 1353.38C385.427 1354.4 384.077 1355.41 383.064 1356.42C373.947 1363.85 364.829 1371.28 355.374 1378.37C365.167 1371.28 374.284 1363.85 383.739 1356.08C385.09 1355.07 386.103 1354.06 387.116 1353.04C427.975 1318.6 465.457 1279.43 498.211 1236.55C499.224 1235.2 500.237 1234.18 500.913 1232.83C533.329 1189.61 561.357 1142.33 583.981 1091.68C584.656 1090.33 585.332 1088.98 586.007 1087.29C608.294 1036.64 625.515 982.276 636.321 925.209C636.321 923.521 636.996 921.833 637.334 920.482C639.36 908.663 641.386 897.182 643.074 885.026C649.49 838.764 651.516 792.84 649.828 747.254C649.828 745.566 649.828 743.877 649.828 742.189C647.126 685.459 638.347 629.405 623.827 575.715L625.853 576.39Z" fill="#FF9A3E" fill-opacity="0.26"/>
<path d="M357.4 1379.05C353.348 1382.09 348.958 1385.46 344.568 1388.5C348.958 1385.46 353.01 1382.42 357.4 1379.05Z" fill="#FF9A3E" fill-opacity="0.26"/>
<path d="M339.841 1391.88C339.841 1391.88 341.529 1390.53 342.542 1389.85C338.153 1392.89 333.425 1396.27 329.035 1399.31L339.841 1391.88Z" fill="#FF9A3E" fill-opacity="0.26"/>
<path d="M344.569 1388.16C344.569 1388.16 342.88 1389.18 342.205 1389.85C342.88 1389.18 343.893 1388.84 344.569 1388.16Z" fill="#FF9A3E" fill-opacity="0.26"/>
<path d="M653.205 619.613L660.971 669.589C658.945 652.705 656.581 636.159 653.205 619.613Z" fill="#FF9A3E" fill-opacity="0.26"/>
<path d="M650.841 606.443L652.192 612.521C651.854 610.495 651.516 608.469 650.841 606.443Z" fill="#FF9A3E" fill-opacity="0.26"/>
<path d="M652.867 617.248L651.854 612.521C652.192 614.884 652.867 617.248 653.205 619.612V617.248H652.867Z" fill="#FF9A3E" fill-opacity="0.26"/>
</svg>
