<svg width="894" height="1425" viewBox="0 0 894 1425" fill="none" xmlns="http://www.w3.org/2000/svg">
<path d="M348.753 1233.38L349.647 1233.02L356.085 1230.94C350.855 1232.79 345.31 1234.52 339.452 1236.11C339.229 1236.2 338.782 1236.38 338.558 1236.47C341.777 1235.42 345.31 1234.52 348.53 1233.47L348.753 1233.38Z" fill="white"/>
<path d="M272.898 1251.58L278.938 1250.44C278.938 1250.44 278.267 1250.71 278.044 1250.8C276.389 1251.21 274.644 1251.39 272.989 1251.8L272.898 1251.58Z" fill="white"/>
<path d="M319.328 1241.64C325.724 1240.1 332.253 1238.24 338.467 1236.24C338.691 1236.15 338.914 1236.06 339.361 1235.88C332.833 1237.74 326.08 1239.69 319.461 1241.33L319.328 1241.64Z" fill="white"/>
<path d="M278.714 1250.53C278.714 1250.53 279.385 1250.26 279.922 1250.3L280.816 1249.94C286.722 1249.11 292.671 1247.74 298.71 1246.6C298.71 1246.6 298.263 1246.78 298.039 1246.87C291.33 1248.29 284.844 1249.61 278.581 1250.84L278.714 1250.53Z" fill="white"/>
<path d="M298.71 1246.6L299.157 1246.42C305.643 1245.1 312.039 1243.55 318.568 1241.69C311.725 1243.42 305.106 1245.05 298.396 1246.47L298.71 1246.6Z" fill="white"/>
<path d="M420.452 1193.98C416.876 1195.43 413.433 1196.56 409.767 1197.79C409.32 1197.97 409.054 1198.59 408.474 1199.09C412.05 1197.64 415.583 1196.73 418.935 1195.38C428.502 1192.03 437.532 1188.64 445.578 1185.38C446.248 1185.11 446.738 1184.39 447.318 1183.9C439.049 1187.24 430.109 1190.86 420.228 1194.07L420.452 1193.98Z" fill="white"/>
<path d="M366.04 1211.83C366.04 1211.83 365.55 1212.55 365.417 1212.86C379.816 1208.6 393.9 1204.2 407.357 1199.54C407.804 1199.36 408.07 1198.73 408.65 1198.24C394.97 1202.99 380.662 1207.48 366.04 1211.83Z" fill="white"/>
<path d="M272.972 1235.69C258.212 1239.06 243.719 1241.8 229.672 1244.36C229.986 1244.49 230.613 1244.76 231.151 1244.8C244.974 1242.33 259.154 1239.45 273.691 1236.18C273.6 1235.95 273.196 1235.6 272.882 1235.46L272.972 1235.69Z" fill="white"/>
<path d="M364.608 1212.15C349.986 1216.5 335.051 1220.72 320.157 1224.4C320.248 1224.63 320.338 1224.85 320.429 1225.08C335.231 1221.17 350.034 1217.26 364.209 1213.09C364.432 1213 364.699 1212.37 364.832 1212.06L364.608 1212.15Z" fill="white"/>
<path d="M113.768 1254.83L117.619 1255.35C119.769 1255.52 122.232 1255.82 124.829 1255.81C123.754 1255.73 122.903 1255.55 121.828 1255.47C118.918 1255.34 116.231 1255.13 113.768 1254.83Z" fill="white"/>
<path d="M130.692 1255.52C127.872 1255.62 125.185 1255.41 122.589 1255.42C123.664 1255.5 124.515 1255.68 125.589 1255.77C127.962 1255.85 130.559 1255.84 133.469 1255.96C139.737 1256.03 146.361 1255.69 153.432 1255.17C152.581 1254.99 151.729 1254.82 150.968 1254.86C143.584 1255.25 136.736 1255.68 130.692 1255.52V1255.52Z" fill="white"/>
<path d="M318.95 1224.63C303.923 1228.63 288.94 1232.09 274.09 1235.23C274.18 1235.46 274.494 1235.59 274.898 1235.95C289.435 1232.67 304.195 1229.3 318.997 1225.39C318.907 1225.17 318.817 1224.95 318.726 1224.72L318.95 1224.63Z" fill="white"/>
<path d="M495.353 1160.57L498.434 1158.55C493.389 1162.15 486.599 1165.93 478.378 1170.04C477.484 1170.4 476.994 1171.12 476.191 1171.7C483.965 1167.78 490.532 1164.08 495.353 1160.57Z" fill="white"/>
<path d="M151.953 1254.73C151.953 1254.73 153.655 1255.08 154.416 1255.03C165.068 1254.36 176.747 1253.02 189.096 1251.41C188.468 1251.14 187.707 1251.19 187.08 1250.92C174.507 1252.63 162.514 1253.83 151.862 1254.5L151.953 1254.73Z" fill="white"/>
<path d="M448.435 1183.45C448.435 1183.45 447.275 1184.44 446.695 1184.93C457.646 1180.5 467.299 1176.08 475.297 1172.06C476.19 1171.7 476.68 1170.98 477.484 1170.4C469.262 1174.5 459.386 1179.02 448.212 1183.54L448.435 1183.45Z" fill="white"/>
<path d="M188.154 1251.01C188.154 1251.01 189.543 1251.22 190.171 1251.49C202.743 1249.79 215.896 1247.59 229.72 1245.12C229.406 1244.98 228.778 1244.72 228.464 1244.59C214.417 1247.15 200.951 1249.21 188.378 1250.92L188.154 1251.01Z" fill="white"/>
<path d="M550.097 1100.47C550.097 1100.47 548.894 1101.99 548.404 1102.71C560.468 1096.53 570.429 1090.94 578.108 1085.5C578.821 1084.69 579.534 1083.88 580.024 1083.16C572.345 1088.61 562.16 1094.29 550.097 1100.47V1100.47Z" fill="white"/>
<path d="M-9.23287 1223.96C-9.23287 1223.96 -7.12617 1224.67 -6.18456 1225.07C0.359044 1227.1 9.45138 1228.36 21.0924 1228.86C20.1508 1228.46 19.2092 1228.06 18.2676 1227.66C6.62655 1227.17 -2.77964 1225.77 -9.32324 1223.73L-9.23287 1223.96Z" fill="white"/>
<path d="M243.598 1198.42C221.591 1203.16 199.941 1207.49 178.961 1211.56C179.365 1211.91 179.86 1212.49 180.264 1212.85C201.111 1209.1 222.538 1204.86 244.231 1199.98C244.05 1199.54 243.869 1199.09 243.374 1198.51L243.598 1198.42Z" fill="white"/>
<path d="M549.07 1101.14C536.693 1107.19 522.214 1113.82 505.453 1120.6C504.963 1121.32 504.473 1122.04 504.207 1122.67C520.745 1115.98 535.091 1109.66 547.378 1103.39C547.867 1102.67 548.58 1101.86 549.07 1101.14V1101.14Z" fill="white"/>
<path d="M177.216 1211.74C156.369 1215.49 136.326 1218.66 117.31 1221.15C117.938 1221.41 118.656 1221.9 119.284 1222.17C137.986 1219.55 158.029 1216.38 178.652 1212.72C178.248 1212.37 177.753 1211.79 177.126 1211.52L177.216 1211.74Z" fill="white"/>
<path d="M591.897 1073.94L594.17 1071.2C590.96 1074.84 586.543 1078.71 580.695 1082.89C579.982 1083.7 579.269 1084.51 578.779 1085.23C584.404 1081.13 588.911 1077.49 591.897 1073.94V1073.94Z" fill="white"/>
<path d="M64.2897 1228.29C64.2897 1228.29 62.7203 1227.62 62.0022 1227.13C51.1269 1227.89 40.8317 1228.15 31.5209 1228.28C27.3124 1228.16 23.1944 1228.27 19.4329 1227.97C20.3745 1228.37 21.3161 1228.77 22.1673 1228.94C25.8384 1229.02 29.8234 1229.23 33.9415 1229.12C43.0289 1229.09 53.324 1228.82 64.1993 1228.07L64.2897 1228.29Z" fill="white"/>
<path d="M312.163 1182.13C289.757 1187.81 267.484 1193.18 245.253 1198.01C245.434 1198.46 245.615 1198.9 246.109 1199.48C268.026 1194.52 290.166 1189.47 312.258 1183.65C312.077 1183.21 311.897 1182.76 311.939 1182.22L312.163 1182.13Z" fill="white"/>
<path d="M115.655 1221.56C96.8624 1223.96 79.1872 1225.9 63.2095 1226.91C63.9276 1227.4 64.7788 1227.57 65.4969 1228.06C81.4746 1227.06 98.9263 1225.2 117.629 1222.58C116.91 1222.09 116.283 1221.82 115.565 1221.33L115.655 1221.56Z" fill="white"/>
<path d="M502.552 1123.08C502.552 1123.08 503.531 1121.64 503.797 1121.01C491.506 1125.98 478.006 1131.18 463.432 1136.3C458.292 1138.38 452.747 1140.1 447.517 1141.95C447.25 1142.58 446.984 1143.21 446.718 1143.84C452.172 1141.89 457.403 1140.03 462.633 1138.18C477.208 1133.07 490.484 1127.96 502.552 1123.08Z" fill="white"/>
<path d="M380.494 1163.34C358.673 1169.82 336.447 1175.95 314.041 1181.63C314.222 1182.08 314.403 1182.53 314.36 1183.06C336.452 1177.25 358.454 1171.21 380.275 1164.73C380.318 1164.19 380.361 1163.65 380.627 1163.02L380.494 1163.34Z" fill="white"/>
<path d="M445.952 1142.59C425.61 1149.51 404.193 1156.35 382.595 1162.75C382.552 1163.28 382.286 1163.91 382.243 1164.45C403.841 1158.06 425.035 1151.3 445.153 1144.47C445.419 1143.84 445.686 1143.21 445.952 1142.59Z" fill="white"/>
<path d="M662.864 971.648L664.509 968.642C664.243 969.27 663.753 969.988 663.263 970.706C662.641 971.738 662.241 972.68 661.842 973.622C662.332 972.903 662.598 972.276 662.864 971.648Z" fill="white"/>
<path d="M470.283 1066.44C444.264 1075.4 417.079 1084.05 389.176 1092.22C389.224 1092.98 389.271 1093.74 389.005 1094.37C416.594 1086.07 443.779 1077.41 469.666 1068.77C469.841 1067.91 470.017 1067.06 470.283 1066.44Z" fill="white"/>
<path d="M642.386 989.811C642.386 989.811 641.364 991.785 640.875 992.503C650.608 985.706 657.388 979.324 661.172 973.893C661.795 972.861 662.194 971.919 662.594 970.977C658.9 976.632 652.029 982.791 642.073 989.678L642.386 989.811Z" fill="white"/>
<path d="M126.592 1154.72C99.9301 1159.53 74.2948 1163.65 50.1335 1166.92C50.6282 1167.5 51.3463 1167.99 51.9313 1168.8C75.8691 1165.62 101.504 1161.49 128.167 1156.69C127.895 1156.02 127.177 1155.53 126.906 1154.86L126.592 1154.72Z" fill="white"/>
<path d="M386.627 1092.99C358.724 1101.15 330.194 1109.05 301.706 1116.41C301.977 1117.08 302.025 1117.84 302.072 1118.6C330.56 1111.24 358.867 1103.43 386.547 1095.36C386.499 1094.6 386.452 1093.84 386.718 1093.21L386.627 1092.99Z" fill="white"/>
<path d="M543.649 1041.44C543.649 1041.44 544.315 1039.88 544.491 1039.02C528.847 1045.35 511.457 1051.86 492.86 1058.6C486.065 1061.09 479.18 1063.36 472.385 1065.85C472.209 1066.7 472.033 1067.55 471.767 1068.18C478.653 1065.91 485.448 1063.42 492.243 1060.93C510.84 1054.19 527.782 1047.86 543.426 1041.54L543.649 1041.44Z" fill="white"/>
<path d="M47.9414 1167.29C23.7802 1170.56 1.31642 1172.88 -19.2263 1174.17C-18.5082 1174.66 -17.6997 1175.37 -16.9815 1175.86C3.47081 1174.35 25.9345 1172.03 49.8723 1168.85C49.3776 1168.27 48.5691 1167.56 48.0745 1166.98L47.9414 1167.29Z" fill="white"/>
<path d="M601.917 1013.2C586.145 1021.14 567.643 1029.4 546.188 1038.08C546.012 1038.93 545.613 1039.87 545.347 1040.5C566.578 1031.91 585.08 1023.65 600.628 1015.8C601.028 1014.86 601.427 1013.92 601.917 1013.2Z" fill="white"/>
<path d="M299.29 1116.87C270.802 1124.23 242.133 1131.14 213.954 1137.34C214.225 1138.01 214.496 1138.68 214.768 1139.35C242.723 1133.24 271.392 1126.33 299.656 1119.06C299.385 1118.39 299.338 1117.63 299.29 1116.87Z" fill="white"/>
<path d="M211.539 1137.79C183.36 1143.99 155.67 1149.47 128.784 1154.36C129.056 1155.03 129.774 1155.52 130.045 1156.19C156.707 1151.39 184.083 1145.78 212.262 1139.58C211.991 1138.91 211.719 1138.24 211.448 1137.57L211.539 1137.79Z" fill="white"/>
<path d="M641.582 990.396C631.626 997.284 618.806 1004.81 603.258 1012.66C602.858 1013.6 602.459 1014.54 601.969 1015.26C617.518 1007.41 630.204 1000.2 640.161 993.312C640.56 992.37 640.959 991.428 641.673 990.62L641.582 990.396Z" fill="white"/>
<path d="M78.4378 1076.16C47.1677 1081.79 17.1482 1086.65 -11.0408 1090.25C-10.6792 1091.14 -9.87075 1091.86 -9.50922 1092.75C18.5893 1088.93 48.6993 1084.29 79.6555 1078.53C79.294 1077.64 78.9324 1076.74 78.4378 1076.16Z" fill="white"/>
<path d="M634.742 910.47C616.378 919.718 594.524 929.336 569.494 939.459C569.408 940.534 569.233 941.385 569.147 942.46C593.954 932.427 615.718 922.585 634.172 913.561C634.257 912.487 634.656 911.545 634.742 910.47Z" fill="white"/>
<path d="M480.446 972.612C449.866 983.159 418.031 993.173 385.568 1002.92C385.706 1003.91 385.753 1004.67 385.891 1005.65C418.355 995.903 450.19 985.888 480.546 975.432C480.632 974.357 480.584 973.596 480.669 972.521L480.446 972.612Z" fill="white"/>
<path d="M566.912 943.363C566.912 943.363 567.174 941.437 567.259 940.362C548.933 947.774 528.639 955.461 506.823 963.244C498.91 966.184 490.907 968.9 482.905 971.617C482.819 972.692 482.867 973.452 482.781 974.527C490.784 971.811 498.787 969.094 506.699 966.154C528.515 958.371 548.363 950.865 566.912 943.363Z" fill="white"/>
<path d="M705.822 861.181C701.414 867.644 693.251 875.106 681.91 883.073C681.601 884.238 681.426 885.089 681.117 886.254C692.457 878.287 700.397 870.916 704.805 864.452C705.113 863.287 705.289 862.436 705.598 861.271L705.822 861.181Z" fill="white"/>
<path d="M681.107 883.658C669.543 891.715 654.579 900.367 636.216 909.614C636.13 910.689 635.731 911.63 635.646 912.705C653.786 903.549 668.749 894.896 680.313 886.839C680.622 885.674 680.798 884.823 681.107 883.658V883.658Z" fill="white"/>
<path d="M708.76 856.871L709.777 853.6C709.159 855.93 708.004 858.217 706.402 860.686C706.093 861.851 705.917 862.702 705.608 863.867C707.21 861.399 708.366 859.111 708.85 857.095L708.76 856.871Z" fill="white"/>
<path d="M280.432 1031.66C246.98 1040.25 213.57 1048.3 180.56 1055.41C180.922 1056.3 181.193 1056.97 181.554 1057.87C214.474 1050.53 247.974 1042.71 281.203 1034.21C280.842 1033.31 280.794 1032.55 280.656 1031.57L280.432 1031.66Z" fill="white"/>
<path d="M177.697 1056.04C144.778 1063.38 112.257 1069.77 80.9868 1075.39C81.3484 1076.29 81.7099 1077.18 82.2045 1077.76C113.475 1072.14 145.681 1065.61 178.378 1058.37C178.016 1057.48 177.655 1056.58 177.384 1055.91L177.697 1056.04Z" fill="white"/>
<path d="M382.706 1003.56C350.152 1013.08 316.747 1022.43 283.295 1031.02C283.657 1031.92 283.704 1032.68 283.842 1033.66C317.071 1025.16 350.252 1015.9 382.806 1006.38C382.668 1005.39 382.62 1004.63 382.482 1003.65L382.706 1003.56Z" fill="white"/>
<path d="M143.787 956.122C107.691 963.96 72.084 971.079 37.7278 977.432C38.0893 978.326 38.5412 979.443 38.9028 980.337C73.0354 974.074 108.642 966.955 144.739 959.118C144.377 958.224 143.925 957.107 143.787 956.122V956.122Z" fill="white"/>
<path d="M696.017 766.851C683.202 775.673 666.765 785.182 646.927 795.285C646.842 796.36 646.98 797.344 646.985 798.642C667.046 788.449 683.483 778.94 696.074 770.208C696.16 769.133 696.245 768.058 696.017 766.851Z" fill="white"/>
<path d="M476.151 867.472C476.151 867.472 475.875 865.504 475.87 864.206C442.294 875.704 407.463 886.67 371.691 897.237C372.052 898.131 371.967 899.206 372.195 900.413C407.968 889.847 442.709 878.657 476.061 867.249L476.151 867.472Z" fill="white"/>
<path d="M723.185 742.081C718.288 749.262 709.635 757.443 697.044 766.175C696.959 767.25 696.873 768.325 697.102 769.533C709.693 760.8 718.346 752.62 723.243 745.438C723.328 744.364 723.414 743.289 723.409 741.991L723.185 742.081Z" fill="white"/>
<path d="M256.45 929.28C219.688 938.687 182.969 947.556 146.873 955.394C147.234 956.287 147.686 957.405 147.824 958.389C183.921 950.552 220.64 941.683 257.402 932.276C257.04 931.382 256.902 930.398 256.674 929.19L256.45 929.28Z" fill="white"/>
<path d="M645.006 796.322C624.631 806.383 600.856 817.038 573.591 828.065C573.729 829.049 573.643 830.124 573.872 831.332C601.137 820.305 624.912 809.65 645.287 799.589C645.373 798.514 645.144 797.307 645.23 796.232L645.006 796.322Z" fill="white"/>
<path d="M727.763 733.468L727.929 730.021C727.763 733.468 726.48 737.368 723.765 741.586C723.68 742.661 723.684 743.959 723.599 745.034C726.314 740.816 727.687 737.14 727.853 733.692L727.763 733.468Z" fill="white"/>
<path d="M34.7742 977.846C0.64155 984.109 -32.4214 989.159 -63.4729 993.396C-63.1114 994.29 -62.6594 995.407 -62.2979 996.301C-31.2464 992.065 1.50268 986.881 35.7257 980.842C35.3642 979.948 34.9123 978.83 34.5508 977.936L34.7742 977.846Z" fill="white"/>
<path d="M571.414 832.326C571.414 832.326 571.361 830.267 571.133 829.059C551.019 837.193 528.937 845.604 504.886 854.291C496.212 857.278 487.406 860.58 478.509 863.658C478.647 864.642 478.785 865.626 478.79 866.925C487.687 863.847 496.36 860.859 504.943 857.648C528.771 849.052 550.853 840.641 570.967 832.506L571.414 832.326Z" fill="white"/>
<path d="M368.562 898.502C332.789 909.069 296.299 919.146 259.537 928.553C259.898 929.447 260.127 930.654 260.265 931.639C296.803 922.322 333.518 912.155 369.067 901.679C368.705 900.785 368.791 899.71 368.562 898.502Z" fill="white"/>
<path d="M555.375 711.653C555.375 711.653 554.919 709.237 554.557 708.343C533.549 716.839 510.796 725.521 485.761 734.346C476.641 737.514 467.521 740.682 458.4 743.851C458.852 744.968 458.857 746.266 459.219 747.16C468.339 743.992 477.459 740.824 486.579 737.655C511.301 728.697 534.368 720.149 555.375 711.653Z" fill="white"/>
<path d="M455.718 744.935C421.025 756.886 384.54 768.261 347.426 779.37C347.878 780.488 348.106 781.695 348.244 782.68C385.358 771.571 421.62 760.286 456.537 748.245C456.085 747.128 456.08 745.829 455.718 744.935V744.935Z" fill="white"/>
<path d="M631.469 674.118C610.514 684.673 585.621 695.78 557.238 707.259C557.69 708.376 557.695 709.675 558.057 710.568C586.44 699.09 611.332 687.982 632.287 677.427C631.835 676.31 631.83 675.012 631.692 674.027L631.469 674.118Z" fill="white"/>
<path d="M227.892 812.371C189.699 822.096 151.549 831.284 114.021 839.441C114.473 840.558 114.701 841.766 114.839 842.75C152.367 834.594 190.518 825.406 228.711 815.681C228.259 814.563 228.03 813.355 227.892 812.371Z" fill="white"/>
<path d="M110.711 840.259C73.1835 848.415 36.1455 855.853 0.581504 862.435C1.03342 863.553 1.26184 864.76 1.39989 865.745C37.0543 859.386 74.0019 851.725 111.53 843.569C111.078 842.451 110.849 841.244 110.711 840.259Z" fill="white"/>
<path d="M712.506 617.941C707.476 625.436 698.375 633.797 685.428 642.934C685.88 644.052 685.884 645.35 686.023 646.334C698.97 637.197 708.07 628.836 713.1 621.341C712.648 620.224 712.644 618.925 712.506 617.941Z" fill="white"/>
<path d="M344.117 780.189C306.913 791.074 269.081 801.694 230.888 811.419C231.34 812.537 231.568 813.744 231.707 814.729C269.9 805.003 307.731 794.384 344.935 783.498C344.483 782.381 344.255 781.173 344.117 780.189Z" fill="white"/>
<path d="M717.92 605.609L717.235 601.985C718.058 606.593 716.69 611.567 713.219 617.132C713.671 618.249 713.676 619.547 713.814 620.532C717.508 614.877 718.877 609.903 717.83 605.385L717.92 605.609Z" fill="white"/>
<path d="M684.177 643.7C671.006 652.927 653.898 662.706 633.166 673.171C633.618 674.289 633.623 675.587 633.761 676.571C654.493 666.106 671.601 656.327 684.772 647.1C684.32 645.982 684.315 644.684 684.177 643.7Z" fill="white"/>
<path d="M196.127 688.176C158.695 697.854 121.215 706.771 84.2246 714.97C84.6765 716.087 84.6815 717.385 84.8196 718.37C121.81 710.171 159.513 701.163 197.036 691.709C196.584 690.592 196.356 689.384 196.127 688.176Z" fill="white"/>
<path d="M310.787 656.627C274.344 667.465 236.869 677.68 199.437 687.358C199.889 688.475 200.117 689.683 200.345 690.891C237.778 681.213 275.253 670.998 311.92 660.07C311.468 658.952 311.016 657.835 310.787 656.627Z" fill="white"/>
<path d="M645.171 522.174C632.223 531.311 615.339 541 595.054 551.284C595.506 552.401 595.958 553.519 596.41 554.636C616.918 544.262 633.803 534.573 646.75 525.436C646.298 524.318 645.846 523.201 645.394 522.084L645.171 522.174Z" fill="white"/>
<path d="M420.197 621.74C385.951 633.51 350.226 644.838 313.783 655.675C314.235 656.793 314.687 657.91 314.916 659.118C351.359 648.28 387.307 636.862 421.33 625.183C420.878 624.066 420.426 622.948 419.974 621.831L420.197 621.74Z" fill="white"/>
<path d="M80.8248 715.565C43.8344 723.764 7.46691 730.931 -27.6501 737.332C-27.1982 738.449 -27.2836 739.524 -27.0552 740.732C8.06182 734.331 44.4294 727.164 81.4197 718.965C80.9678 717.848 80.9628 716.549 80.6013 715.656L80.8248 715.565Z" fill="white"/>
<path d="M519.05 589.043C519.05 589.043 518.146 586.808 517.695 585.69C497.134 594.006 474.604 602.597 450.016 611.241C441.119 614.319 432.223 617.397 423.102 620.565C423.554 621.683 424.006 622.8 424.458 623.918C433.578 620.749 442.475 617.671 451.372 614.593C475.87 605.726 498.49 597.358 519.05 589.043Z" fill="white"/>
<path d="M677.919 481.625L676.564 478.273C678.733 483.637 677.726 489.505 673.409 496.192C673.861 497.309 674.313 498.426 674.765 499.544C679.081 492.857 680.222 486.675 677.919 481.625Z" fill="white"/>
<path d="M593.042 552.097C572.311 562.562 548.089 573.398 520.153 584.696C520.605 585.813 521.057 586.931 521.509 588.048C549.444 576.75 573.89 565.824 594.622 555.359C594.17 554.241 593.718 553.124 593.266 552.007L593.042 552.097Z" fill="white"/>
<path d="M672.919 496.91C667.889 504.405 658.921 512.452 646.197 521.499C646.649 522.616 647.101 523.733 647.553 524.851C660.277 515.804 669.377 507.443 674.274 500.262C673.822 499.145 673.37 498.027 672.919 496.91Z" fill="white"/>
<path d="M373.698 507.406C341.686 518.271 308.51 528.828 274.392 538.986C274.844 540.103 275.206 540.997 275.658 542.115C309.776 531.957 343.175 521.31 375.186 510.444C374.734 509.327 374.373 508.433 373.921 507.315L373.698 507.406Z" fill="white"/>
<path d="M164.606 569.085C129.723 577.992 94.6582 586.452 60.2166 593.88C60.5782 594.774 60.5831 596.072 60.8115 597.28C95.3862 589.538 130.541 581.301 165.425 572.394C164.973 571.277 164.835 570.292 164.606 569.085Z" fill="white"/>
<path d="M466.112 476.792C466.112 476.792 465.075 474.871 464.4 473.844C445.18 481.617 424.215 489.575 401.505 497.72C393.369 500.75 384.919 503.647 376.469 506.544C376.921 507.662 377.283 508.556 377.735 509.673C386.184 506.776 394.634 503.879 402.77 500.848C425.48 492.704 446.669 484.655 465.888 476.882L466.112 476.792Z" fill="white"/>
<path d="M271.53 539.623C237.412 549.781 202.576 559.449 167.692 568.356C168.054 569.25 168.282 570.458 168.51 571.665C203.618 562.668 238.454 553 272.571 542.843C272.119 541.725 271.758 540.831 271.306 539.714L271.53 539.623Z" fill="white"/>
<path d="M609.572 390.429C609.572 390.429 611.056 392.169 611.731 393.196C616.048 386.509 617.056 380.641 614.216 375.549C613.541 374.522 612.732 373.808 612.057 372.781C614.806 377.65 613.889 383.742 609.572 390.429Z" fill="white"/>
<path d="M534.698 442.553C515.44 452.161 492.782 462.365 466.635 472.94C467.087 474.057 467.672 474.861 468.347 475.888C494.495 465.313 517.152 455.109 536.633 445.411C536.182 444.293 535.373 443.58 534.698 442.553Z" fill="white"/>
<path d="M57.4441 594.74C23.0025 602.168 -10.859 609.102 -43.5604 615.046C-43.4224 616.03 -43.4174 617.328 -43.2794 618.313C-10.578 612.368 23.374 605.658 57.9487 597.916C57.5871 597.022 57.5821 595.724 57.4441 594.74V594.74Z" fill="white"/>
<path d="M583.207 414.613C570.973 422.941 555.429 432.088 536.395 441.606C536.847 442.724 537.656 443.437 538.331 444.464C557.589 434.855 573.132 425.709 585.367 417.38C584.691 416.353 584.106 415.55 583.431 414.523L583.207 414.613Z" fill="white"/>
<path d="M609.215 390.833C604.451 397.7 596.154 405.476 584.458 413.847C585.133 414.874 585.718 415.678 586.393 416.705C598.314 408.243 606.701 400.691 611.374 393.6L609.215 390.833Z" fill="white"/>
<path d="M502.192 323.599C491.655 330.981 477.719 338.958 461.053 347.258C461.861 347.971 462.446 348.775 463.345 349.711C480.235 341.321 494.081 333.12 504.618 325.739C503.809 325.025 503.001 324.312 502.192 323.599V323.599Z" fill="white"/>
<path d="M228.598 433.467C198.683 442.445 167.96 450.709 137.371 458.66C137.732 459.554 138.094 460.448 138.232 461.432C169.045 453.391 199.768 445.127 229.906 436.059C229.544 435.165 229.183 434.271 228.731 433.153L228.598 433.467Z" fill="white"/>
<path d="M318.245 405.013C290.123 414.566 261.151 423.943 231.146 432.697C231.508 433.591 231.869 434.485 232.321 435.602C262.235 426.624 291.745 417.29 319.867 407.737C319.505 406.843 318.92 406.04 318.245 405.013V405.013Z" fill="white"/>
<path d="M524.943 302.697C520.893 308.756 513.532 315.633 502.905 322.791C503.714 323.504 504.522 324.217 505.421 325.154C515.958 317.772 523.318 310.895 527.369 304.836C526.56 304.123 525.752 303.41 524.943 302.697V302.697Z" fill="white"/>
<path d="M134.731 459.208C104.142 467.159 73.2809 474.439 43.0001 481.224C43.1381 482.209 43.2761 483.193 43.4142 484.177C73.695 477.392 104.779 470.021 135.46 462.294C135.098 461.4 134.736 460.506 134.598 459.522L134.731 459.208Z" fill="white"/>
<path d="M399.885 377.977C399.885 377.977 398.491 376.46 397.816 375.433C380.831 382.302 362.324 389.267 342.386 396.55C335.144 399.219 327.812 401.664 320.256 404.2C320.618 405.094 321.203 405.897 321.878 406.925C329.434 404.389 336.676 401.72 344.008 399.275C364.037 392.215 382.676 384.937 399.661 378.067L399.885 377.977Z" fill="white"/>
<path d="M40.3606 481.771C10.0798 488.557 -19.5782 494.31 -48.3423 499.702C-48.4277 500.777 -48.2897 501.761 -48.3751 502.836C-19.5207 497.667 10.2705 491.6 40.6417 485.038C40.5036 484.054 40.3655 483.069 40.2275 482.085L40.3606 481.771Z" fill="white"/>
<path d="M530.039 288.934C530.039 288.934 528.422 287.507 527.39 286.885C529.735 291.397 529.127 296.324 525.3 302.292C526.109 303.005 526.917 303.718 527.949 304.341C531.776 298.373 532.608 293.356 530.039 288.934Z" fill="white"/>
<path d="M459.802 348.024C442.912 356.414 422.937 365.533 400.141 374.752C400.726 375.556 401.535 376.269 402.21 377.296C425.229 367.987 445.295 359.091 462.094 350.477C461.286 349.764 460.701 348.96 459.802 348.024Z" fill="white"/>
<path d="M371.547 271.899C357.696 278.801 341.652 286.07 322.879 293.662C323.688 294.375 324.406 294.865 325.214 295.578C343.987 287.986 360.254 280.627 374.105 273.725C373.297 273.012 372.355 272.613 371.547 271.899Z" fill="white"/>
<path d="M424.767 235.033C421.339 240.06 415.496 245.544 406.923 251.351C407.955 251.974 408.673 252.464 409.705 253.087C418.187 247.056 424.254 241.482 427.682 236.455C426.65 235.832 425.709 235.433 424.677 234.81L424.767 235.033Z" fill="white"/>
<path d="M107.055 362.484C82.1006 368.936 56.9649 374.941 32.3189 380.228C32.3666 380.989 32.5046 381.973 32.5523 382.734C57.4217 377.357 82.5574 371.352 107.736 364.81C107.374 363.916 107.103 363.245 106.965 362.261L107.055 362.484Z" fill="white"/>
<path d="M256.361 318.224C233.561 326.144 209.818 333.666 185.358 340.698C185.72 341.592 185.991 342.262 186.576 343.066C210.946 335.811 234.911 328.199 258.026 320.411C257.441 319.607 256.946 319.027 256.361 318.224V318.224Z" fill="white"/>
<path d="M183.48 341.198C159.11 348.453 134.336 355.352 109.291 361.581C109.652 362.475 109.923 363.145 110.285 364.039C135.463 357.497 160.551 350.731 184.921 343.476C184.56 342.582 184.288 341.911 183.703 341.108L183.48 341.198Z" fill="white"/>
<path d="M323.65 296.211C323.65 296.211 322.123 295.008 321.538 294.205C307.682 299.808 292.842 305.55 276.48 311.387C270.579 313.514 264.678 315.64 258.463 317.634C259.048 318.437 259.542 319.017 260.351 319.731C266.475 317.514 272.467 315.611 278.368 313.484C294.73 307.647 309.794 301.815 323.65 296.211Z" fill="white"/>
<path d="M30.4402 380.727C5.88459 386.237 -18.4048 391.12 -41.7575 395.103C-41.9334 395.955 -42.0188 397.029 -41.9712 397.79C-18.4853 393.493 5.80408 388.61 30.6736 383.233C30.6259 382.472 30.4879 381.488 30.4402 380.727Z" fill="white"/>
<path d="M429.692 223.42C429.692 223.42 427.719 222.398 426.777 221.999C428.761 225.617 428.105 229.783 425.124 234.629C426.156 235.252 427.098 235.651 428.13 236.274C431.334 231.337 431.766 227.262 429.783 223.644L429.692 223.42Z" fill="white"/>
<path d="M406.343 251.846C397.637 257.967 386.425 264.322 372.797 271.134C373.605 271.847 374.547 272.246 375.355 272.959C389.207 266.057 400.328 259.479 409.125 253.581C408.093 252.959 407.375 252.469 406.343 251.846Z" fill="white"/>
<path d="M298.894 202.206C292.599 206.573 284.558 211.125 274.639 216.176C275.581 216.576 276.522 216.975 277.464 217.374C287.383 212.323 295.647 207.68 301.942 203.314C301.001 202.915 299.836 202.606 298.894 202.206Z" fill="white"/>
<path d="M273.746 216.539C263.827 221.59 252.163 226.828 238.754 232.251C239.472 232.74 240.413 233.14 241.132 233.629C254.764 228.116 266.652 222.788 276.571 217.737C275.629 217.337 274.687 216.938 273.746 216.539V216.539Z" fill="white"/>
<path d="M27.6083 295.28C9.89537 299.063 -7.59412 302.755 -24.5939 305.73C-24.7697 306.581 -25.0359 307.209 -25.2117 308.06C-8.21195 305.086 9.59141 301.526 27.4375 297.429C27.3898 296.668 27.4325 296.131 27.3848 295.37L27.6083 295.28Z" fill="white"/>
<path d="M240.014 234.081C240.014 234.081 238.355 233.192 237.637 232.702C227.803 236.679 216.985 240.794 205.183 245.047C200.937 246.764 196.51 248.035 192.174 249.529C192.892 250.018 193.386 250.598 194.104 251.088C198.441 249.594 202.778 248.1 207.114 246.607C218.916 242.354 229.958 238.148 240.014 234.081Z" fill="white"/>
<path d="M83.0671 281.952C65.1784 286.586 46.8853 290.864 29.2627 294.87C29.3104 295.631 29.2677 296.168 29.3154 296.929C47.2518 293.056 65.4545 288.555 83.8806 283.963C83.6094 283.293 83.3383 282.622 83.0671 281.952Z" fill="white"/>
<path d="M315.594 190.773C315.594 190.773 313.487 190.064 312.322 189.756C309.873 193.346 305.68 197.122 299.475 201.712C300.416 202.112 301.581 202.42 302.523 202.82C308.818 198.454 313.145 194.363 315.594 190.773Z" fill="white"/>
<path d="M138.027 266.745C120.409 272.05 102.611 276.908 84.4985 281.633C84.7697 282.303 85.0408 282.973 85.312 283.644C103.424 278.919 121.67 273.881 139.601 268.709C139.33 268.039 138.835 267.459 138.341 266.878L138.027 266.745Z" fill="white"/>
<path d="M190.832 250.07C174.38 255.684 157.076 261.122 139.682 266.336C139.953 267.007 140.448 267.587 140.942 268.167C158.56 262.862 176.087 257.334 192.763 251.63C192.045 251.14 191.55 250.56 190.832 250.07Z" fill="white"/>
<path d="M316.99 181.366C316.99 181.366 314.75 180.972 313.808 180.573C315.117 183.164 314.77 186.165 312.545 189.665C313.71 189.974 314.652 190.373 315.817 190.682C318.042 187.182 318.612 184.091 317.08 181.59L316.99 181.366Z" fill="white"/>
<path d="M63.4094 221.771C53.2572 224.317 43.3285 226.772 33.3094 229.004C33.4902 229.451 33.2239 230.078 33.1812 230.616C43.4238 228.294 53.6664 225.972 64.0421 223.336C63.8614 222.889 63.6806 222.442 63.4998 221.995L63.4094 221.771Z" fill="white"/>
<path d="M32.4157 229.365C22.3966 231.597 12.734 233.424 3.29501 235.162C3.0288 235.789 2.67223 236.194 2.40602 236.821C12.0685 234.994 21.9545 233.076 32.1971 230.754C32.2399 230.217 32.2826 229.679 32.4157 229.365Z" fill="white"/>
<path d="M2.53397 235.209C-6.90506 236.946 -15.9875 238.279 -24.5326 239.655C-25.1126 240.149 -25.6023 240.867 -26.1824 241.362C-17.5469 240.21 -8.24103 238.787 1.42149 236.959C1.6877 236.332 2.04432 235.927 2.31052 235.3L2.53397 235.209Z" fill="white"/>
<path d="M94.3558 213.417C84.6078 216.319 74.546 219.088 64.3938 221.634C64.5746 222.081 64.7553 222.527 64.9361 222.974C75.3118 220.338 85.5971 217.479 95.5686 214.486C95.3878 214.04 94.7601 213.773 94.3558 213.417V213.417Z" fill="white"/>
<path d="M152.482 195.11C152.482 195.11 150.78 194.758 150.062 194.268C144.475 196.528 138.44 198.968 131.779 201.142C129.32 202.137 127.085 203.04 124.446 203.588C125.074 203.854 125.702 204.12 126.42 204.61C128.878 203.616 131.427 202.845 133.976 202.074C140.771 199.586 146.895 197.369 152.706 195.019L152.482 195.11Z" fill="white"/>
<path d="M170.128 185.373C164.498 188.17 158.107 191.015 150.509 194.088C151.36 194.264 152.211 194.439 152.929 194.929C160.528 191.856 167.365 188.831 172.995 186.034C172.144 185.858 171.069 185.772 170.128 185.373V185.373Z" fill="white"/>
<path d="M184.288 177.306C180.85 179.736 176.204 182.395 170.798 185.102C171.873 185.187 172.724 185.363 173.666 185.763C179.296 182.966 183.941 180.307 187.602 177.786C186.528 177.7 185.453 177.615 184.378 177.529L184.288 177.306Z" fill="white"/>
<path d="M191.648 170.429C190.312 172.269 187.858 174.562 184.421 176.992C185.495 177.078 186.57 177.163 187.645 177.249C191.083 174.818 193.536 172.526 195.005 170.371C193.93 170.286 192.632 170.291 191.557 170.205L191.648 170.429Z" fill="white"/>
<path d="M123.866 204.082C114.746 207.251 105.089 210.376 95.3406 213.279C95.5213 213.726 96.1491 213.992 96.5533 214.348C106.525 211.356 116.406 208.14 125.84 205.104C125.212 204.838 124.584 204.572 123.866 204.082V204.082Z" fill="white"/>
<path d="M196.06 165.264C196.06 165.264 193.687 165.183 192.613 165.098C193.245 166.662 193.117 168.274 191.781 170.115C192.856 170.2 194.154 170.195 195.229 170.28C196.474 168.217 196.826 166.514 195.97 165.04L196.06 165.264Z" fill="white"/>
<path d="M21.9202 1234.76C17.4833 1233.44 13.2699 1232.02 8.96606 1230.38C11.6101 1231.13 14.1211 1232.2 16.7651 1232.95L22.0532 1234.45L21.9202 1234.76Z" fill="white"/>
<path d="M7.26416 1230.03C7.26416 1230.03 8.20577 1230.43 8.74313 1230.47C8.20577 1230.43 7.80152 1230.07 7.26416 1230.03Z" fill="white"/>
<path d="M220.054 1257.87C217.234 1257.97 214.505 1258.29 211.908 1258.3C214.191 1258.16 216.473 1258.02 218.756 1257.87L220.278 1257.78L220.054 1257.87Z" fill="white"/>
<path d="M509.817 1150.04C509.817 1150.04 509.014 1150.63 508.657 1151.03C509.104 1150.85 509.461 1150.45 509.817 1150.04Z" fill="white"/>
<path d="M501.425 1156.3C503.835 1154.54 506.246 1152.79 508.433 1151.12C505.219 1153.46 501.872 1156.12 498.657 1158.46L501.515 1156.52L501.425 1156.3Z" fill="white"/>
<path d="M611.641 392.972C611.641 392.972 610.38 391.142 609.481 390.205C585.277 358.648 557.816 329.968 527.949 304.341C527.14 303.628 526.332 302.915 525.3 302.292C495.299 276.979 462.58 254.586 427.816 236.141C426.784 235.518 425.842 235.119 424.81 234.496C390.046 216.05 353.461 201.462 315.503 190.549C314.338 190.24 313.396 189.841 312.231 189.532C274.139 178.933 234.855 172.457 195.005 170.371C193.93 170.285 192.856 170.2 191.557 170.205C152.559 168.294 113.219 170.682 73.5365 177.369C73.6696 177.056 73.8027 176.742 73.7124 176.518C113.523 168.219 153.172 164.666 192.389 165.188C193.464 165.273 194.762 165.268 195.837 165.354C235.995 166.275 275.498 171.362 313.585 180.663C314.75 180.972 315.825 181.057 316.766 181.457C354.943 190.981 391.704 204.718 426.553 222.089C427.585 222.712 428.527 223.111 429.469 223.51C464.185 241.195 496.9 262.29 527.166 286.975C527.975 287.688 528.783 288.401 529.815 289.024C559.858 313.799 587.362 341.942 611.609 372.962C612.194 373.766 613.093 374.702 613.769 375.729C621.417 385.638 628.708 395.951 635.866 406.578L630.282 397.915C508.335 220.479 285.987 127.855 63.9167 178.66C63.9167 178.66 62.0007 180.995 56.9936 182.76C49.7517 185.428 39.6422 187.437 34.7633 187.59C33.1512 187.461 32.2999 187.286 31.8957 186.929C30.3313 187.562 28.5861 187.747 27.0217 188.38C-253.168 271.011 -420.836 559.854 -349.336 844.026C-343.384 867.102 -336.404 889.504 -327.637 911.182L-326.191 914.758C-331.614 901.348 -336.367 887.668 -340.763 873.584C-341.215 872.466 -341.666 871.349 -341.895 870.141C-344.388 862.048 -346.657 853.864 -348.703 845.59C-356.84 813.255 -361.933 780.73 -364.025 748.551C-364.03 747.253 -364.168 746.268 -364.173 744.97C-366.476 704.555 -364.48 664.482 -358.137 625.511C-358.051 624.436 -357.743 623.271 -357.657 622.197C-351.091 583.136 -340.088 545.401 -325.409 509.039C-325.01 508.098 -324.701 506.933 -324.078 505.901C-309.085 469.673 -290.459 435.356 -268.199 402.95C-267.576 401.918 -266.863 401.109 -266.24 400.077C-243.8 368.118 -217.95 338.161 -188.999 311.37C-188.285 310.561 -187.258 309.886 -186.545 309.077C-157.504 282.51 -125.228 258.795 -90.4318 238.742C-89.3143 238.29 -88.5108 237.705 -87.4837 237.029C-53.4005 217.784 -16.7537 201.663 22.1477 189.831C22.2381 190.055 22.6424 190.411 23.1797 190.454C-14.1951 203.489 -49.2725 220.276 -82.143 240.59C-83.2604 241.042 -83.9736 241.851 -85.091 242.303C-118.451 263.336 -149.29 288.03 -177.21 315.443C-177.923 316.252 -178.636 317.06 -179.663 317.736C-207.268 345.283 -231.863 375.772 -253.181 408.578C-253.804 409.61 -254.517 410.418 -254.916 411.36C-275.92 444.298 -293.738 479.328 -307.699 516.179C-308.098 517.121 -308.407 518.286 -308.807 519.228C-322.768 556.079 -332.739 594.436 -338.9 633.854C-338.986 634.929 -339.295 636.094 -339.38 637.168C-345.319 676.496 -346.91 716.926 -344.294 757.474C-344.065 758.682 -344.151 759.756 -343.922 760.964C-341.516 793.276 -336.423 825.802 -328.287 858.137C-326.241 866.41 -323.972 874.594 -321.479 882.687C-321.027 883.805 -320.575 884.922 -320.346 886.13C-308.243 925.702 -291.941 962.796 -272.382 997.012C-271.93 998.129 -271.345 998.933 -270.67 999.96C-250.888 1034.09 -227.625 1065.24 -201.419 1093.39C-200.61 1094.1 -200.025 1094.91 -199.126 1095.84C-172.788 1123.68 -143.819 1148.37 -112.626 1169.56C-111.818 1170.27 -110.876 1170.67 -110.068 1171.38C-78.7413 1192.26 -45.0996 1209.86 -10.0415 1223.25C-9.0999 1223.64 -7.93484 1223.95 -6.99323 1224.35C-2.37556 1226.13 2.4656 1227.81 7.30675 1229.49C2.77947 1227.94 -1.74782 1226.39 -6.36548 1224.62C-7.30709 1224.22 -8.2487 1223.82 -9.4138 1223.51C-44.4719 1210.13 -78.0231 1192.75 -109.44 1171.65C-110.472 1171.03 -111.19 1170.54 -112.222 1169.92C-143.415 1148.73 -172.383 1124.04 -198.722 1096.2C-199.531 1095.49 -200.116 1094.68 -201.015 1093.75C-227.13 1065.82 -250.26 1034.35 -270.042 1000.23C-270.494 999.109 -271.079 998.305 -271.754 997.278C-291.313 963.062 -307.615 925.968 -319.719 886.396C-320.17 885.279 -320.622 884.161 -320.851 882.953C-323.344 874.86 -325.613 866.677 -327.659 858.403C-335.796 826.068 -340.889 793.542 -343.295 761.23C-343.523 760.022 -343.438 758.948 -343.666 757.74C-346.283 717.192 -344.691 676.762 -338.753 637.435C-338.667 636.36 -338.358 635.195 -338.273 634.12C-332.334 594.793 -322.14 556.345 -308.402 519.584C-308.003 518.643 -307.694 517.477 -307.295 516.536C-293.334 479.685 -275.516 444.655 -254.512 411.716C-253.889 410.684 -253.176 409.876 -252.777 408.934C-231.459 376.129 -206.864 345.639 -179.349 317.869C-178.636 317.06 -177.923 316.252 -176.896 315.576C-149.29 288.03 -118.361 263.559 -85.091 242.303C-84.1971 241.941 -83.2604 241.042 -82.143 240.59C-49.496 220.366 -14.5089 203.356 22.8659 190.321C23.4032 190.364 24.2545 190.539 25.1057 190.715C-8.64074 204.363 -40.4037 221.63 -69.7361 242.334C-70.6301 242.695 -71.3432 243.504 -72.3703 244.179C-102.416 265.692 -129.941 290.866 -154.545 318.759C-155.259 319.568 -155.972 320.376 -156.685 321.185C-181.199 349.302 -203.017 380.229 -221.871 413.338C-222.494 414.37 -222.893 415.312 -223.607 416.12C-242.147 449.362 -257.412 484.92 -269.537 521.809C-269.846 522.974 -270.245 523.915 -270.554 525.081C-282.366 562.102 -290.634 600.812 -295.407 640.448C-295.493 641.523 -295.578 642.597 -295.887 643.762C-300.437 683.308 -300.954 723.824 -297.71 764.638C-297.481 765.846 -297.567 766.92 -297.338 768.128C-294.395 800.483 -288.988 833.142 -280.852 865.477C-278.806 873.75 -276.536 881.934 -274.043 890.027C-273.591 891.145 -273.139 892.262 -272.911 893.47C-260.808 933.042 -245.357 969.96 -226.649 1004C-226.197 1005.12 -225.612 1005.92 -224.937 1006.95C-206.006 1040.9 -184.132 1071.84 -159.761 1099.95C-159.176 1100.75 -158.368 1101.46 -157.783 1102.27C-133.279 1130.06 -106.237 1154.49 -77.2839 1175.29C-76.4754 1176 -75.7572 1176.49 -74.7252 1177.11C-45.5484 1197.82 -14.7743 1214.76 17.597 1227.93C18.5386 1228.33 19.4802 1228.73 20.4218 1229.13C52.9262 1241.99 86.714 1250.94 121.067 1255.51C122.142 1255.6 122.993 1255.78 124.068 1255.86C132.532 1256.86 140.906 1257.63 149.504 1258.32L152.191 1258.53C142.923 1258.12 133.921 1257.08 124.695 1256.13C123.621 1256.04 122.77 1255.87 121.695 1255.78C87.3418 1251.21 53.554 1242.25 21.2731 1229.3C20.3315 1228.9 19.3899 1228.5 18.5386 1228.33C-13.7423 1215.38 -44.6068 1198.22 -73.4698 1177.65C-74.2783 1176.93 -74.9964 1176.44 -76.0284 1175.82C-104.982 1155.03 -131.801 1130.51 -156.437 1103.02C-157.022 1102.22 -157.831 1101.51 -158.416 1100.7C-182.696 1072.82 -204.57 1041.88 -223.501 1007.93C-223.953 1006.81 -224.538 1006.01 -225.213 1004.98C-243.921 970.939 -259.462 933.798 -271.475 894.449C-271.927 893.332 -272.379 892.214 -272.607 891.007C-275.1 882.913 -277.369 874.73 -279.415 866.456C-287.552 834.121 -292.959 801.462 -295.902 769.108C-296.131 767.9 -296.045 766.825 -296.274 765.617C-299.741 724.893 -299.001 684.288 -294.674 644.832C-294.589 643.758 -294.504 642.683 -294.195 641.518C-289.645 601.972 -281.376 563.262 -269.565 526.241C-269.256 525.076 -268.857 524.134 -268.548 522.969C-256.736 485.947 -241.249 450.299 -222.931 417.147C-222.308 416.115 -221.909 415.173 -221.196 414.365C-202.655 381.123 -180.838 350.196 -156.323 322.079C-155.61 321.27 -154.897 320.462 -154.184 319.653C-129.579 291.76 -102.054 266.586 -72.2322 245.164C-71.3383 244.802 -70.6251 243.993 -69.5981 243.318C-40.2656 222.614 -8.81657 205.214 24.9298 191.566C25.1533 191.476 25.3768 191.386 26.0046 191.652C26.7654 191.604 27.5262 191.557 28.6009 191.642C0.49429 205.089 -26.0758 222.336 -50.2155 243.02C-51.0191 243.605 -51.5991 244.1 -52.3123 244.909C-77.1651 266.401 -99.5875 291.332 -119.537 319.163C-120.026 319.881 -120.74 320.69 -121.139 321.631C-140.998 349.686 -158.474 380.417 -173.12 413.645C-173.519 414.586 -173.919 415.528 -174.318 416.469C-188.964 449.697 -200.647 485.107 -209.416 521.938C-209.724 523.103 -209.9 523.954 -210.209 525.119C-218.887 562.174 -224.559 600.873 -227.05 640.367C-227.135 641.441 -227.221 642.516 -227.216 643.814C-229.393 683.441 -228.612 723.951 -224.159 764.537C-223.931 765.745 -224.016 766.819 -223.788 768.027C-220.084 800.334 -214.363 833.126 -206.003 865.37C-203.957 873.644 -201.688 881.828 -199.418 890.011C-198.966 891.129 -198.514 892.246 -198.286 893.454C-186.72 932.983 -172.03 969.949 -154.844 1004.08C-154.483 1004.98 -154.031 1006.1 -153.446 1006.9C-136.036 1040.95 -116.221 1071.94 -94.5377 1099.83C-93.9526 1100.64 -93.3676 1101.44 -92.5591 1102.15C-70.6521 1129.96 -46.7436 1154.36 -21.1475 1175.21C-20.4293 1175.7 -19.6208 1176.41 -18.9027 1176.9C6.60303 1197.53 33.5729 1214.71 61.7357 1227.76C62.4539 1228.25 63.3051 1228.43 64.0232 1228.92C92.0957 1241.75 121.228 1250.77 150.702 1255.49C151.553 1255.67 152.405 1255.84 153.165 1255.8C172.515 1258.63 191.903 1259.63 211.418 1259.02C192.217 1259.76 173.053 1258.67 154.017 1255.97C153.165 1255.8 152.314 1255.62 151.553 1255.67C122.079 1250.94 93.1704 1241.83 65.0979 1229C64.3798 1228.51 63.5286 1228.34 62.8105 1227.85C34.8711 1214.7 7.90124 1197.53 -17.381 1176.81C-18.0991 1176.32 -18.9076 1175.6 -19.6258 1175.11C-44.9984 1154.17 -68.9069 1129.77 -90.814 1101.97C-91.399 1101.16 -91.984 1100.36 -92.7925 1099.65C-114.476 1071.75 -134.291 1040.76 -151.477 1006.62C-151.839 1005.73 -152.291 1004.61 -152.876 1003.81C-170.062 969.673 -184.751 932.707 -196.317 893.178C-196.769 892.061 -197.221 890.943 -197.45 889.735C-199.719 881.552 -201.989 873.368 -204.035 865.094C-212.171 832.759 -218.025 800.282 -221.819 767.751C-222.048 766.543 -221.962 765.468 -222.191 764.261C-226.643 723.675 -227.648 683.255 -225.471 643.628C-225.385 642.554 -225.3 641.479 -225.305 640.181C-222.814 600.688 -217.365 562.079 -208.688 525.024C-208.379 523.859 -208.203 523.008 -207.894 521.842C-199.216 484.788 -187.533 449.378 -173.11 416.241C-172.711 415.299 -172.311 414.358 -171.912 413.416C-157.399 380.503 -140.013 349.548 -120.378 321.584C-119.888 320.866 -119.175 320.057 -118.776 319.115C-98.8267 291.284 -76.4043 266.354 -51.9985 245.042C-51.1949 244.457 -50.7052 243.739 -49.9016 243.153C-25.762 222.469 0.270799 205.18 28.3774 191.732C29.6756 191.727 31.107 191.409 32.6286 191.313C11.1888 203.885 -8.53373 220.702 -26.4536 240.692C-27.0336 241.186 -27.5233 241.904 -28.1034 242.399C-46.5129 263.106 -62.6251 287.565 -76.8918 314.658C-77.3815 315.376 -77.7808 316.318 -78.047 316.946C-92.2233 344.262 -104.15 374.57 -113.784 407.33C-114.183 408.272 -114.359 409.123 -114.759 410.065C-124.393 442.826 -131.601 477.726 -136.565 514.319C-136.651 515.393 -136.736 516.468 -136.912 517.319C-141.653 553.822 -144.058 592.24 -143.819 631.41C-143.904 632.484 -143.676 633.692 -143.762 634.767C-143.432 674.16 -140.459 714.304 -134.709 754.885C-134.48 756.092 -134.342 757.077 -134.337 758.375C-129.649 790.544 -123.481 823.155 -115.121 855.399C-113.075 863.673 -110.806 871.857 -108.536 880.041C-108.084 881.158 -107.856 882.366 -107.718 883.35C-96.3754 922.97 -82.8934 960.164 -67.4526 994.485C-67.0911 995.379 -66.6392 996.497 -66.2776 997.391C-50.9272 1031.49 -33.5277 1062.94 -15.0207 1091.34C-14.6591 1092.23 -13.8506 1092.95 -13.4891 1093.84C5.15107 1121.93 25.3458 1146.78 46.4672 1168.15C46.9619 1168.73 47.7704 1169.44 48.265 1170.02C69.2961 1191.16 91.4774 1208.71 114.181 1222.41C114.899 1222.9 115.527 1223.17 116.245 1223.66C138.859 1237.14 162.218 1246.67 185.696 1252C186.324 1252.27 187.084 1252.22 187.712 1252.49C209.307 1257.01 230.844 1258.19 252.366 1255.46L253.036 1255.19C231.605 1258.14 210.158 1257.19 188.697 1252.35C188.069 1252.08 187.308 1252.13 186.68 1251.86C163.426 1246.44 140.29 1236.82 117.677 1223.34C117.049 1223.07 116.331 1222.58 115.703 1222.32C93.2226 1208.53 71.2647 1190.88 50.2337 1169.74C49.739 1169.16 48.9305 1168.45 48.4359 1167.87C27.5379 1146.42 7.34323 1121.56 -11.0735 1093.38C-11.435 1092.49 -12.2435 1091.78 -12.605 1090.88C-31.0217 1062.7 -48.4212 1031.26 -63.7716 997.157C-64.1331 996.263 -64.5851 995.146 -64.9466 994.252C-80.1639 959.84 -93.8694 922.736 -104.898 883.25C-105.35 882.132 -105.578 880.925 -105.716 879.94C-107.986 871.757 -110.255 863.573 -112.301 855.299C-120.438 822.964 -126.829 790.444 -131.517 758.275C-131.746 757.067 -131.884 756.083 -131.889 754.784C-137.639 714.203 -140.612 674.06 -140.942 634.667C-140.856 633.592 -141.085 632.384 -140.999 631.309C-141.238 592.14 -139.056 553.812 -134.406 517.086C-134.321 516.011 -134.235 514.936 -134.059 514.085C-129.319 477.583 -122.11 442.683 -112.7 410.012C-112.524 409.161 -112.124 408.219 -111.949 407.368C-102.447 374.921 -90.5209 344.614 -76.6584 317.164C-76.1687 316.446 -75.9929 315.595 -75.5032 314.877C-61.5504 287.651 -45.3478 263.415 -27.2522 242.575C-26.7625 241.857 -26.1824 241.362 -25.6023 240.867C-7.90598 220.969 11.593 204.241 32.719 191.537C34.2407 191.441 35.8955 191.032 37.6407 190.847C24.0755 202.314 11.8233 217.67 1.24073 236.512C0.974521 237.14 0.617945 237.544 0.35174 238.172C-10.497 257.642 -19.5857 280.821 -27.1856 307.038C-27.3615 307.889 -27.6277 308.517 -27.8035 309.368C-35.313 335.809 -40.8867 365.107 -45.0192 396.683C-45.195 397.534 -45.2804 398.609 -45.4563 399.46C-49.4984 431.259 -51.5619 465.379 -52.1416 501.239C-52.227 502.313 -52.0889 503.298 -52.1744 504.372C-52.4402 540.365 -50.9985 578.008 -47.8068 616.763C-47.6687 617.748 -47.6638 619.046 -47.5257 620.03C-44.1105 658.695 -38.8548 698.696 -31.8966 739.049C-31.6682 740.257 -31.4397 741.464 -31.3017 742.449C-25.6287 774.48 -18.7002 807.043 -10.5638 839.378C-8.51784 847.652 -6.24835 855.835 -4.20236 864.109C-3.75044 865.227 -3.52202 866.434 -3.38398 867.419C7.42113 906.996 19.6953 944.418 32.944 979.106C33.3055 980 33.7574 981.118 34.1189 982.011C47.2772 1016.48 61.7237 1048.34 76.7404 1077.11C77.102 1078.01 77.4635 1078.9 77.9581 1079.48C92.8844 1108.03 108.695 1133.62 124.895 1155.67C125.166 1156.34 125.884 1156.83 126.155 1157.5C142.265 1179.33 158.854 1197.85 175.519 1212.69C175.923 1213.05 176.417 1213.63 177.045 1213.89C193.529 1228.29 210.312 1238.92 226.767 1245.53C227.08 1245.66 227.708 1245.93 228.022 1246.06C244.519 1252.13 260.687 1254.18 276.346 1251.74C276.57 1251.65 277.017 1251.47 277.24 1251.38L277.911 1251.11C277.911 1251.11 277.24 1251.38 276.793 1251.56C261.448 1254.13 245.28 1252.09 229.006 1245.93C228.693 1245.79 228.065 1245.53 227.527 1245.48C211.387 1239.01 194.827 1228.28 178.343 1213.89C177.939 1213.53 177.445 1212.95 177.04 1212.59C160.689 1197.88 144.324 1179.28 128.214 1157.45C127.943 1156.78 127.225 1156.29 126.954 1155.62C110.977 1133.48 95.3905 1107.79 80.4642 1079.25C80.1026 1078.35 79.7411 1077.46 79.2464 1076.88C64.4532 1048.02 50.2302 1016.06 37.0719 981.597C36.7104 980.703 36.2585 979.586 35.8969 978.692C22.6483 944.004 10.688 906.715 -0.430966 867.005C-0.882884 865.887 -1.11134 864.679 -1.24939 863.695C-3.51887 855.512 -5.56486 847.238 -7.83434 839.054C-15.9707 806.719 -22.8992 774.156 -28.7957 742.215C-29.2476 741.098 -29.1622 740.023 -29.3906 738.815C-36.5723 698.553 -41.828 658.552 -45.2432 619.887C-45.3813 618.903 -45.3862 617.605 -45.5243 616.62C-48.9395 577.956 -50.3811 540.313 -50.1153 504.32C-50.0299 503.245 -50.168 502.261 -50.0825 501.186C-49.7264 465.417 -47.6628 431.297 -43.9346 399.364C-43.7587 398.513 -43.6733 397.439 -43.721 396.678C-39.9024 364.969 -34.3287 335.67 -27.0427 309.32C-26.8668 308.469 -26.6006 307.841 -26.4248 306.99C-19.0484 280.863 -10.1831 257.775 0.575231 238.082C0.841436 237.454 1.19801 237.05 1.46422 236.422C11.8233 217.67 23.7616 202.18 37.1033 190.804C38.7581 190.395 40.7268 190.119 42.3816 189.709C37.1807 199.354 33.1597 213.202 30.5849 230.626C30.5422 231.163 30.4994 231.7 30.3663 232.014C27.5253 250.066 26.1304 271.693 25.687 296.316C25.7347 297.077 25.692 297.614 25.7397 298.375C25.3867 323.222 26.299 351.197 28.5195 381.764C28.5671 382.525 28.7052 383.509 28.7528 384.27C30.9733 414.837 34.188 447.862 38.6631 482.718C39.0246 483.612 38.9392 484.686 39.0772 485.671C43.5523 520.526 49.1548 557.527 55.7465 595.687C56.108 596.581 56.113 597.879 56.251 598.864C62.8427 637.024 70.4237 676.344 79.3505 716.421C79.8024 717.538 79.8074 718.837 80.1689 719.73C87.0497 751.533 94.6487 783.825 102.785 816.16C104.831 824.434 106.877 832.708 109.146 840.891C109.598 842.009 109.827 843.217 109.965 844.201C120.323 883.959 131.076 921.476 142.222 956.754C142.584 957.648 143.036 958.766 143.174 959.75C154.23 994.805 165.277 1027.26 176.223 1056.9C176.585 1057.79 176.946 1058.69 177.217 1059.36C188.297 1088.68 199.276 1115.19 209.974 1138.43C210.245 1139.1 210.516 1139.77 210.788 1140.44C221.395 1163.45 231.945 1183.11 242.034 1199.05C242.215 1199.5 242.395 1199.95 242.89 1200.53C252.888 1216.24 262.424 1228.25 271.408 1236.32C271.498 1236.54 271.903 1236.9 272.217 1237.03C281.02 1244.65 289.271 1248.34 296.698 1247.41C296.698 1247.41 297.145 1247.23 297.369 1247.14C297.592 1247.05 298.039 1246.87 298.263 1246.78L298.71 1246.6C298.71 1246.6 298.263 1246.78 297.816 1246.96L297.369 1247.14C290.165 1247.98 282.228 1244.43 273.648 1236.71C273.557 1236.49 273.153 1236.13 272.839 1236C264.169 1228.06 254.857 1215.97 244.992 1199.94C244.811 1199.49 244.63 1199.04 244.136 1198.46C234.271 1182.43 223.944 1162.68 213.336 1139.67C213.065 1139 212.794 1138.33 212.523 1137.66C201.825 1114.42 191.069 1087.82 180.213 1058.41C179.852 1057.51 179.58 1056.84 179.219 1055.95C168.273 1026.31 157.226 993.853 146.393 958.708C146.032 957.814 145.58 956.697 145.442 955.713C134.609 920.568 123.856 883.05 113.408 843.069C112.956 841.951 112.727 840.743 112.589 839.759C110.32 831.576 108.364 823.525 106.228 815.028C98.0914 782.693 90.4924 750.401 83.6116 718.598C83.1596 717.481 83.1547 716.183 83.0167 715.198C74.4037 675.255 66.5089 635.801 59.6937 597.731C59.2418 596.614 59.3272 595.539 59.0987 594.331C52.2836 556.261 46.7715 519.485 42.206 484.405C42.068 483.421 41.9299 482.437 41.7919 481.452C37.3168 446.597 33.8786 413.662 31.3443 382.962C31.2063 381.978 31.1586 381.217 31.1109 380.456C28.9808 350.113 27.7546 322.004 27.6606 297.338C27.613 296.578 27.6557 296.04 27.608 295.279C27.7375 270.523 28.9089 248.986 31.5265 231.025C31.5692 230.488 31.6119 229.95 31.6546 229.413C34.3199 212.213 37.8938 198.545 43.0043 188.677C44.8826 188.178 46.8513 187.902 48.506 187.492C51.893 195.224 56.3695 206.936 61.8451 222.404C62.0258 222.851 62.2066 223.298 62.3874 223.745C67.8203 239.75 74.2524 259.513 81.5028 282.584C81.774 283.255 82.0451 283.925 82.3163 284.596C89.5668 307.667 97.4122 334.139 105.714 363.026C106.076 363.92 106.347 364.591 106.485 365.575C114.878 394.686 124.041 426.345 133.257 460.064C133.619 460.958 133.98 461.852 134.118 462.836C143.648 496.688 153.454 532.508 163.355 569.85C163.807 570.967 163.945 571.952 164.174 573.16C174.075 610.502 184.295 649.275 194.653 689.032C195.105 690.15 195.334 691.358 195.562 692.565C203.651 724.14 211.92 756.161 220.147 788.719C222.193 796.993 224.239 805.267 226.285 813.541C226.737 814.658 226.965 815.866 227.103 816.85C237.014 856.789 246.335 894.625 254.843 930.45C255.205 931.344 255.343 932.329 255.571 933.537C264.212 969.048 271.949 1002.32 278.915 1033.05C279.277 1033.95 279.325 1034.71 279.463 1035.69C286.339 1066.2 292.577 1093.84 297.773 1118.26C298.044 1118.93 298.315 1119.6 298.14 1120.45C303.336 1144.87 307.491 1166.08 310.646 1183.52C310.827 1183.97 311.007 1184.42 310.965 1184.96C314.12 1202.4 316.276 1216.09 317.433 1226.03C317.524 1226.25 317.614 1226.47 317.704 1226.7C318.681 1236.18 318.658 1241.91 317.274 1242.99L317.721 1242.81C317.721 1242.81 317.721 1242.81 317.944 1242.72C319.552 1241.55 319.888 1235.96 319.045 1226.15C318.955 1225.93 318.864 1225.71 318.774 1225.48C317.931 1215.68 315.908 1201.68 313.066 1184.37C312.886 1183.92 312.705 1183.47 312.748 1182.93C309.725 1165.17 305.571 1143.97 300.688 1119.68C300.417 1119.01 300.37 1118.25 300.322 1117.49C295.349 1092.98 289.334 1065.24 282.458 1034.74C282.097 1033.85 282.049 1033.09 281.911 1032.1C275.035 1001.6 267.298 968.32 258.881 932.718C258.519 931.824 258.381 930.84 258.153 929.632C249.645 893.807 240.324 855.97 230.413 816.032C229.961 814.914 229.732 813.707 229.594 812.722C227.639 804.672 225.593 796.398 223.456 787.901C215.32 755.566 206.96 723.321 198.872 691.747C198.42 690.63 198.191 689.422 197.963 688.214C187.695 648.68 177.475 609.907 167.26 572.432C166.808 571.314 166.67 570.33 166.441 569.122C156.317 531.87 146.511 496.05 136.757 462.289C136.396 461.395 136.034 460.501 135.896 459.517C126.457 425.888 117.293 394.229 108.677 365.209C108.316 364.315 108.045 363.644 107.683 362.75C99.0669 333.73 91.0884 307.572 83.6145 284.591C83.3433 283.92 83.0722 283.25 82.801 282.579C75.3271 259.598 68.895 239.836 63.0151 224.011C62.8343 223.564 62.6536 223.117 62.4728 222.67C56.7737 207.292 52.2972 195.581 48.4633 188.03C50.3416 187.53 52.2199 187.031 54.0982 186.531C66.3391 191.722 79.313 201.297 92.6583 214.363C92.8391 214.81 93.4668 215.076 93.8711 215.433C107.711 229.078 121.88 246.752 136.553 267.602C136.824 268.272 137.319 268.852 137.813 269.432C152.353 290.596 167.174 315.027 181.782 342.144C182.144 343.038 182.415 343.708 183 344.512C197.698 371.853 212.496 402.014 226.809 434.191C227.171 435.085 227.532 435.979 227.984 437.096C242.388 469.497 256.398 504.137 269.832 540.57C270.284 541.688 270.645 542.582 271.097 543.699C284.532 580.132 297.3 618.135 309.223 657.26C309.675 658.377 310.127 659.495 310.355 660.702C319.875 691.958 328.592 723.798 336.818 756.356C338.864 764.63 340.91 772.904 342.956 781.178C343.408 782.295 343.637 783.503 343.775 784.488C353.148 824.383 361.129 862.762 367.311 899.268C367.673 900.162 367.587 901.236 367.816 902.444C373.908 938.726 378.335 972.821 381.322 1004.64C381.46 1005.62 381.507 1006.38 381.645 1007.37C384.541 1038.96 385.592 1067.92 385.243 1094.07C385.291 1094.83 385.339 1095.59 385.073 1096.22C384.634 1122.14 382.707 1145.02 379.11 1164.42C379.067 1164.95 378.801 1165.58 378.758 1166.12C375.161 1185.52 369.804 1201.21 363.225 1213.23C363.092 1213.54 362.959 1213.86 362.602 1214.26C355.932 1226.06 347.412 1233.93 337.621 1237.36C337.398 1237.46 336.951 1237.64 336.727 1237.73C336.504 1237.82 336.057 1238 335.833 1238.09L336.28 1237.91C336.28 1237.91 336.951 1237.64 337.174 1237.55C337.398 1237.46 337.845 1237.27 338.068 1237.18C348.082 1233.65 356.603 1225.79 363.72 1213.81C363.943 1213.72 364.209 1213.09 364.342 1212.78C371.236 1200.89 376.726 1184.88 380.546 1165.4C380.589 1164.86 380.855 1164.23 380.898 1163.69C384.718 1144.21 386.869 1121.23 387.531 1095.22C387.483 1094.46 387.436 1093.7 387.702 1093.07C388.273 1066.84 386.999 1037.97 384.327 1006.28C384.189 1005.3 384.141 1004.54 384.003 1003.55C381.331 971.87 376.813 937.551 370.721 901.269C370.36 900.375 370.445 899.301 370.217 898.093C364.124 861.811 356.368 823.341 346.68 783.313C346.228 782.195 346 780.987 345.862 780.003C343.906 771.953 341.86 763.679 339.724 755.181C331.587 722.846 322.557 690.873 313.26 659.527C312.809 658.41 312.357 657.293 312.128 656.085C300.206 616.96 287.347 578.734 274.003 542.524C273.551 541.407 273.189 540.513 272.737 539.395C259.079 503.052 245.07 468.412 230.666 436.011C230.305 435.117 229.943 434.224 229.491 433.106C214.864 400.796 200.156 370.859 185.144 343.385C184.783 342.491 184.512 341.82 183.926 341.017C169.005 313.766 153.96 289.426 139.197 268.353C138.926 267.682 138.431 267.102 137.936 266.522C123.263 245.672 108.648 228.18 94.5842 214.624C94.4035 214.177 93.7757 213.911 93.3715 213.554C79.7123 200.356 66.6053 191.094 54.0505 185.77C55.8384 185.047 57.7167 184.548 59.3715 184.138C79.929 186.746 100.682 193.695 121.897 204.358C122.525 204.624 123.153 204.891 123.871 205.38C145.58 216.624 167.305 231.761 189.177 250.48C189.672 251.06 190.39 251.549 191.108 252.039C212.757 270.848 234.017 293.195 254.929 318.542C255.514 319.346 256.009 319.926 256.594 320.729C277.283 346.167 297.403 374.696 316.59 405.422C316.952 406.316 317.627 407.343 318.212 408.147C337.266 439.187 355.389 472.424 372.042 507.815C372.494 508.932 372.856 509.826 373.308 510.944C389.961 546.335 405.055 583.657 418.409 622.463C418.861 623.581 419.313 624.698 419.765 625.816C430.402 656.619 439.88 688.412 448.016 720.746C450.062 729.02 452.108 737.294 453.93 745.659C454.382 746.776 454.387 748.074 454.749 748.968C463.676 789.045 470.315 827.966 474.082 864.928C474.22 865.913 474.358 866.897 474.363 868.195C478.13 905.158 479.562 940.204 478.658 973.334C478.573 974.409 478.62 975.17 478.535 976.245C477.451 1008.93 473.941 1039.47 468.272 1067.25C468.096 1068.1 467.83 1068.73 467.654 1069.58C461.895 1097.13 453.976 1121.92 443.941 1143.4C443.675 1144.03 443.408 1144.65 443.142 1145.28C433.016 1166.54 420.865 1184.72 406.639 1199.05C406.192 1199.23 405.926 1199.86 405.346 1200.35C391.253 1214.37 375.31 1224.46 357.516 1230.62L358.187 1230.35C376.204 1224.1 392.37 1213.92 406.463 1199.9C406.91 1199.72 407.176 1199.09 407.756 1198.6C422.205 1184.17 434.671 1166.13 444.93 1144.56C445.196 1143.93 445.462 1143.3 445.729 1142.68C455.987 1121.1 464.13 1096.23 469.889 1068.67C470.065 1067.82 470.241 1066.97 470.507 1066.34C476.176 1038.57 479.909 1007.93 480.993 975.25C481.079 974.176 481.031 973.415 481.116 972.34C482.11 939.433 480.902 904.297 477.135 867.334C476.997 866.35 476.859 865.365 476.854 864.067C472.997 826.881 466.448 788.184 457.521 748.107C457.069 746.99 457.064 745.691 456.703 744.798C454.97 736.657 452.924 728.383 450.788 719.885C442.652 687.55 433.175 655.758 422.537 624.954C422.085 623.837 421.633 622.72 421.181 621.602C407.604 582.886 392.51 545.564 375.857 510.173C375.405 509.056 375.043 508.162 374.591 507.044C357.714 471.743 339.591 438.506 320.537 407.466C320.176 406.572 319.591 405.769 318.915 404.742C299.728 374.016 279.385 345.577 258.472 320.23C257.887 319.426 257.393 318.846 256.584 318.133C235.671 292.786 213.965 270.619 192.316 251.811C191.598 251.321 191.103 250.741 190.385 250.251C168.513 231.533 146.565 216.485 124.632 205.333C124.004 205.067 123.376 204.8 122.658 204.311C101.443 193.648 80.2429 186.879 59.4618 184.362C59.9088 184.181 60.3558 184 60.8028 183.82C61.9202 183.368 63.0376 182.916 64.155 182.464C91.9546 182.403 120.173 186.593 148.183 194.768C149.034 194.944 149.886 195.119 150.604 195.609C179.332 204.274 207.851 216.923 235.758 233.202C236.476 233.691 237.417 234.091 238.136 234.58C266.133 251.082 293.293 271.302 319.346 294.571C320.155 295.284 320.873 295.774 321.458 296.577C347.601 320.069 372.413 346.7 395.938 375.932C396.523 376.736 397.331 377.449 398.006 378.476C421.307 407.799 442.872 439.903 462.431 474.12C462.883 475.237 463.468 476.041 464.143 477.068C483.479 511.375 500.898 548.016 515.816 586.19C516.268 587.307 516.72 588.425 517.172 589.542C528.703 619.984 538.851 651.505 546.987 683.84C549.033 692.114 551.079 700.388 552.812 708.529C553.263 709.646 553.268 710.945 553.63 711.839C562.333 752.005 567.318 791.336 569.387 829.245C569.525 830.229 569.44 831.304 569.668 832.512C571.424 870.288 569.95 906.509 565.514 940.548C565.428 941.623 565.253 942.474 565.167 943.549C560.507 977.678 552.884 1009.63 542.746 1039.21C542.57 1040.06 542.17 1041 541.904 1041.63C531.361 1070.86 518.079 1097.81 502.366 1121.33C501.876 1122.05 501.387 1122.77 501.12 1123.39C485.184 1147 466.594 1167.26 445.797 1183.99C445.126 1184.27 444.636 1184.98 444.056 1185.48C428.256 1197.85 411.419 1208.3 393.141 1216.47L394.258 1216.02C412.313 1207.94 429.15 1197.49 444.95 1185.12C445.621 1184.85 446.11 1184.13 446.69 1183.63C467.711 1166.81 486.211 1146.33 502.461 1122.85C502.951 1122.13 503.441 1121.42 503.707 1120.79C519.643 1097.18 532.926 1070.23 543.692 1040.91C543.868 1040.06 544.358 1039.34 544.533 1038.49C554.986 1009.04 562.742 976.774 567.402 942.645C567.487 941.57 567.663 940.719 567.749 939.644C572.095 905.382 573.792 869.07 572.127 831.517C571.989 830.533 572.074 829.458 571.846 828.25C569.867 790.565 564.792 751.011 556.088 710.844C555.636 709.727 555.631 708.429 555.27 707.535C553.538 699.394 551.492 691.12 549.446 682.846C541.309 650.511 531.162 618.99 519.63 588.548C519.179 587.43 518.727 586.313 518.275 585.196C503.356 547.022 486.028 510.604 466.602 476.074C466.15 474.956 465.565 474.153 464.889 473.126C445.331 438.909 423.542 406.895 400.241 377.572C399.656 376.769 398.848 376.056 398.172 375.029C374.648 345.796 349.612 319.256 323.469 295.764C322.661 295.051 321.942 294.561 321.134 293.848C294.857 270.669 267.473 250.54 239.477 234.038C238.758 233.548 237.817 233.149 237.099 232.659C208.969 216.472 180.135 203.689 151.498 195.248C150.646 195.072 149.795 194.896 149.077 194.406C120.844 186.322 92.625 182.132 64.602 182.283C65.9429 181.741 67.2839 181.198 68.1778 180.837C101.698 178.202 135.503 180.133 168.787 185.915C169.861 186.001 170.713 186.176 171.654 186.576C205.879 192.757 239.539 203.328 272.495 217.304C273.437 217.703 274.378 218.103 275.32 218.502C308.143 232.791 339.906 250.89 370.206 272.442C371.014 273.155 371.956 273.554 372.764 274.267C403.063 295.819 431.675 320.913 458.238 348.656C459.046 349.369 459.631 350.173 460.53 351.11C486.959 379.167 511.34 409.873 533.357 443.095C533.809 444.213 534.617 444.926 535.293 445.953C556.863 479.356 575.98 515.051 591.792 552.863C592.244 553.98 592.696 555.098 593.148 556.215C605.573 586.296 616.167 617.636 624.304 649.971C626.35 658.245 628.396 666.519 630.128 674.66C630.58 675.777 630.585 677.075 630.723 678.06C638.979 718.407 643.384 758.232 643.798 796.551C643.713 797.625 643.851 798.61 643.856 799.908C644.047 838.316 640.338 875.442 633.311 910.789C633.225 911.864 632.826 912.805 632.74 913.88C625.399 949.094 614.737 982.53 600.576 1013.74C600.177 1014.68 599.777 1015.62 599.287 1016.34C585.036 1047.33 567.731 1075.91 547.415 1101.55C546.925 1102.27 546.212 1103.08 545.722 1103.8C525.316 1129.21 501.99 1151.91 476.143 1170.94C475.249 1171.3 474.759 1172.02 473.956 1172.61C462.126 1181.29 449.621 1188.95 436.711 1196.25L438.052 1195.71C450.738 1188.5 462.929 1180.71 474.626 1172.34C475.52 1171.97 476.01 1171.26 476.813 1170.67C502.884 1151.55 526.21 1128.85 546.84 1103.34C547.329 1102.63 548.043 1101.82 548.532 1101.1C568.848 1075.46 586.377 1046.79 600.628 1015.8C601.028 1014.86 601.427 1013.92 601.917 1013.2C616.078 981.988 626.739 948.552 634.305 913.247C634.39 912.173 634.789 911.231 634.875 910.156C642.126 874.719 645.611 837.684 645.33 799.052C645.415 797.977 645.277 796.993 645.272 795.694C644.767 757.153 640.677 717.461 632.42 677.113C631.968 675.996 631.963 674.698 631.825 673.713C630.093 665.572 628.271 657.208 626.001 649.025C617.865 616.69 607.494 585.259 594.845 555.269C594.393 554.151 593.941 553.034 593.489 551.916C577.677 514.105 558.56 478.409 536.767 445.097C536.315 443.979 535.506 443.266 534.831 442.239C513.037 408.927 488.433 378.311 461.781 350.344C460.972 349.631 460.387 348.827 459.488 347.891C432.926 320.147 404.09 295.143 373.791 273.592C372.983 272.879 372.041 272.479 371.233 271.766C340.933 250.215 308.947 232.206 276.123 217.917C275.182 217.518 274.24 217.118 273.299 216.719C240.342 202.743 206.459 192.263 172.234 186.081C171.16 185.996 170.308 185.82 169.367 185.42C135.86 179.728 102.145 178.022 68.6248 180.656C69.7422 180.204 70.6361 179.843 71.1258 179.125C108.711 174.326 145.955 173.826 183.08 177.534C184.155 177.62 185.229 177.705 186.304 177.79C224.371 181.898 261.559 190.262 297.686 202.435C298.628 202.834 299.793 203.143 300.735 203.543C336.953 215.939 371.664 232.326 404.912 252.165C405.944 252.787 406.662 253.277 407.694 253.9C440.717 273.829 472.054 297.302 500.984 323.827C501.793 324.541 502.601 325.254 503.41 325.967C532.117 352.583 558.508 382.476 581.909 414.618C582.584 415.645 583.169 416.449 583.845 417.476C607.113 449.932 627.256 484.952 643.739 522.493C644.191 523.61 644.643 524.728 645.095 525.845C658.191 555.654 668.918 586.681 677.145 619.239C679.191 627.513 681.237 635.787 682.836 644.242C683.288 645.359 683.293 646.658 683.431 647.642C691.464 688.08 695.198 728.176 694.452 767.483C694.367 768.558 694.281 769.633 694.51 770.841C693.674 809.925 688.491 847.906 679.543 884.29C679.234 885.455 679.058 886.307 678.749 887.472C669.486 923.723 656.547 958.6 640.018 991.029C639.618 991.971 638.996 993.003 638.506 993.721C621.753 1026.24 601.633 1056.22 578.236 1083.89C577.523 1084.69 576.81 1085.5 576.32 1086.22C555.728 1109.89 533.025 1131.55 508.029 1150.76C533.248 1131.46 556.489 1109.84 576.991 1085.95C577.704 1085.14 578.417 1084.33 578.907 1083.61C602.394 1056.17 622.647 1025.88 639.4 993.359C639.799 992.418 640.422 991.386 640.912 990.667C657.351 958.015 670.604 923.271 679.552 886.887C679.861 885.722 680.037 884.87 680.346 883.705C689.295 847.321 694.387 809.116 695.313 770.256C695.399 769.181 695.484 768.106 695.256 766.898C695.868 727.905 692.358 687.718 684.235 647.057C683.783 645.939 683.778 644.641 683.64 643.657C681.907 635.516 680.085 627.152 677.949 618.654C669.812 586.319 658.994 555.069 645.898 525.26C645.446 524.143 644.995 523.025 644.543 521.908C627.927 484.681 607.693 449.437 584.425 416.981C583.749 415.954 583.164 415.151 582.489 414.123C558.998 381.758 532.697 352.088 503.99 325.472C503.181 324.759 502.373 324.046 501.474 323.109C472.543 296.584 441.207 273.111 408.183 253.182C407.151 252.559 406.433 252.069 405.401 251.447C372.154 231.608 337.219 215.311 301.001 202.915C300.059 202.516 298.894 202.207 297.953 201.807C261.601 189.725 224.19 181.451 186.123 177.343C185.048 177.258 183.974 177.173 182.899 177.087C145.774 173.379 108.307 173.969 70.7216 178.768C71.392 178.497 71.6583 177.869 72.0149 177.465C111.697 170.778 151.037 168.39 190.036 170.3C191.11 170.386 192.409 170.381 193.483 170.466C233.424 172.776 272.708 179.252 310.576 189.941C311.741 190.25 312.683 190.649 313.848 190.958C351.806 201.871 388.391 216.46 423.155 234.905C424.187 235.528 425.129 235.927 426.161 236.55C460.701 255.086 493.421 277.478 523.421 302.791C524.23 303.505 525.038 304.218 525.847 304.931C555.714 330.558 583.175 359.238 607.38 390.795L609.539 393.562C633.52 425.21 654.334 459.959 671.307 496.781C671.758 497.899 672.21 499.016 672.662 500.134C685.891 529.629 697.156 560.699 705.069 593.124C707.115 601.398 708.938 609.762 710.76 618.126C711.212 619.244 711.217 620.542 711.355 621.526C719.478 662.188 722.542 702.555 721.44 742.267C721.354 743.342 721.359 744.64 721.274 745.715C719.858 785.293 713.962 824.083 704.077 861.366C703.768 862.531 703.592 863.382 703.283 864.548C693.174 901.921 678.984 937.564 661.162 971.296C660.762 972.238 660.14 973.27 659.74 974.211C655.695 981.568 651.649 988.925 647.289 996.149C651.872 988.835 655.918 981.478 660.097 973.807C660.72 972.775 661.119 971.833 661.518 970.892C679.341 937.16 693.664 901.203 703.863 864.053C704.172 862.888 704.571 861.946 704.657 860.871C714.542 823.588 720.438 784.799 721.854 745.22C721.939 744.145 722.025 743.07 722.02 741.772C723.212 702.284 720.058 661.693 711.935 621.032C711.483 619.914 711.478 618.616 711.34 617.632C709.518 609.267 707.786 601.127 705.649 592.629C697.513 560.294 686.562 529.358 673.242 499.639C672.79 498.522 672.339 497.404 671.887 496.287C654.914 459.464 634.1 424.715 610.119 393.068L611.641 392.972Z" fill="white"/>
<path d="M648.811 996.054C646.942 999.15 644.941 1002.56 642.849 1005.75C644.941 1002.56 646.809 999.464 648.811 996.054Z" fill="white"/>
<path d="M640.624 1009.25C640.624 1009.25 641.38 1007.9 641.87 1007.18C639.778 1010.37 637.553 1013.87 635.461 1017.06L640.624 1009.25Z" fill="white"/>
<path d="M642.759 1005.52C642.759 1005.52 641.913 1006.64 641.646 1007.27C641.913 1006.64 642.493 1006.15 642.759 1005.52Z" fill="white"/>
<path d="M641.312 414.258L659.829 445.255C653.969 434.623 647.976 424.305 641.312 414.258Z" fill="white"/>
<path d="M636.223 406.174L638.744 409.835C637.978 408.585 637.212 407.334 636.223 406.174Z" fill="white"/>
<path d="M640.456 412.783L638.521 409.925C639.377 411.399 640.456 412.783 641.313 414.257L640.68 412.693L640.456 412.783Z" fill="white"/>
</svg>
