<svg width="39" height="32" viewBox="0 0 39 32" fill="none" xmlns="http://www.w3.org/2000/svg">
<path d="M9.89414 14.5618C12.1608 14.7618 13.9941 15.5951 15.3941 17.0618C16.7941 18.5284 17.4941 20.3951 17.4941 22.6618C17.4941 25.1284 16.6941 27.1951 15.0941 28.8618C13.5608 30.4618 11.6275 31.2618 9.29414 31.2618C6.62747 31.2618 4.49414 30.3284 2.89414 28.4618C1.29414 26.5284 0.494141 23.7618 0.494141 20.1618C0.494141 13.1618 2.96081 7.0951 7.89414 1.96176C8.82747 1.02843 9.89414 0.561764 11.0941 0.561764C12.2275 0.561764 13.2275 0.961765 14.0941 1.76177C14.9608 2.4951 15.3941 3.3951 15.3941 4.46177C15.3941 5.3951 15.0275 6.26177 14.2941 7.06176C12.0941 9.3951 10.6275 11.8951 9.89414 14.5618ZM30.5941 14.5618C32.8608 14.7618 34.6941 15.5951 36.0941 17.0618C37.4941 18.5284 38.1941 20.3951 38.1941 22.6618C38.1941 25.1284 37.3941 27.1951 35.7941 28.8618C34.2608 30.4618 32.3275 31.2618 29.9941 31.2618C27.3275 31.2618 25.1941 30.3284 23.5941 28.4618C21.9941 26.5284 21.1941 23.7618 21.1941 20.1618C21.1941 13.1618 23.6608 7.0951 28.5941 1.96176C29.5275 1.02843 30.5941 0.561764 31.7941 0.561764C32.9275 0.561764 33.9275 0.961765 34.7941 1.76177C35.6608 2.4951 36.0941 3.3951 36.0941 4.46177C36.0941 5.3951 35.7275 6.26177 34.9941 7.06176C32.7941 9.3951 31.3275 11.8951 30.5941 14.5618Z" fill="white"/>
</svg>
